<?xml version="1.0" encoding="utf-8"?>
<!-- Generator: Adobe Illustrator 19.1.0, SVG Export Plug-In . SVG Version: 6.00 Build 0)  -->
<svg version="1.1" id="Layer_1" xmlns="http://www.w3.org/2000/svg" xmlns:xlink="http://www.w3.org/1999/xlink" x="0px" y="0px"
	 viewBox="0 0 300 300" style="enable-background:new 0 0 300 300;" xml:space="preserve">
<style type="text/css">
	.st0{fill:#FFFFFF;}
	.st1{opacity:0.2;fill:#37474E;}
	.st2{fill:none;stroke:#F9836B;stroke-width:4;stroke-linecap:round;stroke-linejoin:round;stroke-miterlimit:10;}
	.st3{fill:#FFD6C3;stroke:#F9836B;stroke-width:4;stroke-linecap:round;stroke-linejoin:round;stroke-miterlimit:10;}
</style>
<g>
	<circle class="st0" cx="149.8" cy="150.1" r="89.9"/>
</g>
<ellipse class="st1" cx="149.8" cy="211.9" rx="40" ry="3.1"/>
<g>
	<path class="st2" d="M139,184.3h5.4l5.2,3h7.8h5h27c2.8,0,5.2-2.4,5.2-5.4v-0.4c0-2.9-2.3-5.4-5.2-5.4h3.8c2.8,0,5.2-2.5,5.2-5.6
		v-0.4c0-3.1-2.3-5.6-5.2-5.6h3.8c2.8,0,5.2-2.5,5.2-5.7v-0.4c0-3.2-2.3-5.7-5.2-5.7h1.2c2.8,0.1,5.2-2.4,5.2-5.5v-0.4
		c0-3-2.3-5.5-5.2-5.5h-29c0.8-2.8,3.6-12.9,2.8-21.3c-0.9-9.8-6.2-12-7.9-11.8c-1.7,0.2-4.4,1.9-4.4,1.9v14.7
		c0,0-14.9,27.3-20.7,26.4"/>
	<path class="st3" d="M100.3,186.2c0.3,3.1,3.2,5.6,6.3,5.6h19.3c3.1,0,5.7-2.5,5.7-5.7v-36.7c0-3.1-2.5-5.6-5.6-5.6h-24.5
		c-3.1,0-5.4,2.5-5.1,5.6 M121.4,186c-2.2,0-4-1.8-4-4c0-2.2,1.8-4,4-4c2.2,0,4,1.8,4,4C125.4,184.2,123.6,186,121.4,186z"/>
</g>
</svg>
