<?xml version="1.0" encoding="utf-8"?>
<!-- Generator: Adobe Illustrator 19.1.0, SVG Export Plug-In . SVG Version: 6.00 Build 0)  -->
<svg version="1.1" id="Layer_1" xmlns="http://www.w3.org/2000/svg" xmlns:xlink="http://www.w3.org/1999/xlink" x="0px" y="0px"
	 viewBox="0 0 300 300" style="enable-background:new 0 0 300 300;" xml:space="preserve">
<style type="text/css">
	.st0{fill:none;}
</style>
<g>
	<circle class="st0" cx="150" cy="150" r="100"/>
</g>
<g>
	<path d="M250,144.7V144c0-5.9-4.5-10.7-10-10.7h-56.1c1.6-5.5,6.9-25,5.4-41.2c-1.8-19-11.9-23.2-15.2-22.9
		c-3.3,0.3-8.5,3.7-8.5,3.7v28.5c0,0-28.8,52.9-40,51.1v63.8H136l10,5.9H161h9.7H223c5.5,0,10-4.7,10-10.4v-0.7
		c0-5.7-4.5-10.4-10-10.4h7.4c5.5,0,10-4.9,10-10.9v-0.7c0-6-4.5-10.9-10-10.9h7.3c5.5,0,10-4.9,10-11v-0.8c0-6.1-4.5-11-10-11h2.3
		C245.5,155.5,250,150.7,250,144.7z"/>
	<path d="M107.3,138.1H59.8c-6,0-10.4,4.9-9.8,10.9l7.7,71.1c0.6,6,6.1,10.9,12.1,10.9h37.4c6,0,11-4.9,11-11v-71
		C118.2,143,113.3,138.1,107.3,138.1z M98.5,219.6c-4.2,0-7.7-3.4-7.7-7.7c0-4.2,3.4-7.7,7.7-7.7c4.2,0,7.7,3.4,7.7,7.7
		C106.2,216.1,102.7,219.6,98.5,219.6z"/>
</g>
</svg>
