<?xml version="1.0" encoding="utf-8"?>
<!-- Generator: Adobe Illustrator 19.1.0, SVG Export Plug-In . SVG Version: 6.00 Build 0)  -->
<svg version="1.1" id="Layer_1" xmlns="http://www.w3.org/2000/svg" xmlns:xlink="http://www.w3.org/1999/xlink" x="0px" y="0px"
	 viewBox="0 0 300 300" style="enable-background:new 0 0 300 300;" xml:space="preserve">
<style type="text/css">
	.st0{fill:#FFFFFF;}
	.st1{opacity:0.2;fill:#37474E;}
	.st2{fill:none;stroke:#515D63;stroke-width:4;stroke-linecap:round;stroke-linejoin:round;stroke-miterlimit:10;}
</style>
<g>
	<g>
		<circle class="st0" cx="150" cy="150" r="100"/>
	</g>
	<ellipse class="st1" cx="150" cy="218.7" rx="44.5" ry="3.5"/>
	<g>
		<path class="st2" d="M138,188h6l5.7,3.4h8.6h5.6H194c3.2,0,5.7-2.7,5.7-6v-0.4c0-3.3-2.6-6-5.7-6h4.3c3.2,0,5.7-2.8,5.7-6.3v-0.4
			c0-3.4-2.6-6.3-5.7-6.3h4.2c3.2,0,5.7-2.8,5.7-6.3v-0.5c0-3.5-2.6-6.3-5.7-6.3h1.3c3.2,0.1,5.7-2.7,5.7-6.1v-0.4
			c0-3.4-2.6-6.1-5.7-6.1h-32.2c0.9-3.2,4-14.4,3.1-23.7c-1-10.9-6.8-13.3-8.7-13.2s-4.9,2.1-4.9,2.1V122c0,0-16.5,30.4-23,29.4"/>
		<path class="st2" d="M95,190.2c0.3,3.4,3.5,6.3,7,6.3h21.5c3.4,0,6.3-2.8,6.3-6.3v-40.8c0-3.4-2.8-6.3-6.3-6.3H96.2
			c-3.4,0-6,2.8-5.6,6.3 M118.4,189.9c-2.4,0-4.4-2-4.4-4.4c0-2.4,2-4.4,4.4-4.4c2.4,0,4.4,2,4.4,4.4
			C122.8,187.9,120.8,189.9,118.4,189.9z"/>
	</g>
</g>
</svg>
