<?xml version="1.0" encoding="utf-8"?>
<!-- Generator: Adobe Illustrator 19.1.0, SVG Export Plug-In . SVG Version: 6.00 Build 0)  -->
<svg version="1.1" id="Layer_1" xmlns="http://www.w3.org/2000/svg" xmlns:xlink="http://www.w3.org/1999/xlink" x="0px" y="0px"
	 viewBox="0 0 300 300" style="enable-background:new 0 0 300 300;" xml:space="preserve">
<style type="text/css">
	.st0{fill:#FFFFFF;}
	.st1{opacity:0.2;fill:#37474E;enable-background:new    ;}
	.st2{fill:#515D63;}
</style>
<g>
	<g>
		<circle class="st0" cx="150" cy="150" r="100"/>
	</g>
	<ellipse class="st1" cx="150.4" cy="205.5" rx="28.9" ry="3.5"/>
	<g>
		<path class="st2" d="M172.8,114.8c12.8,0,23.2,10.4,23.2,23.2c0,0.9,0,1.7-0.1,2.5c-1.9,37.2-45.4,50.6-45.4,50.6
			s-45.5-14-45.5-53.2c0-12.8,10.4-23.2,23.1-23.2c10.8,0,19.8,7.3,22.4,17.3C153.1,122.2,162.1,114.8,172.8,114.8 M172.8,110.8
			c-9.1,0-17.4,4.6-22.4,11.8c-5-7.2-13.3-11.8-22.4-11.8c-15,0-27.1,12.2-27.1,27.2c0,17.3,8.4,32.7,24.4,44.5
			c11.8,8.7,23.5,12.4,23.9,12.5s0.8,0.2,1.2,0.2s0.8-0.1,1.2-0.2c0.5-0.1,11.6-3.6,23.2-11.9c15.5-11.2,24.2-25.8,25.1-42.2
			c0.1-0.9,0.1-1.9,0.1-2.9C200,123,187.8,110.8,172.8,110.8L172.8,110.8z"/>
	</g>
</g>
</svg>
