<?xml version="1.0" encoding="utf-8"?>
<!-- Generator: Adobe Illustrator 19.1.0, SVG Export Plug-In . SVG Version: 6.00 Build 0)  -->
<svg version="1.1" id="Layer_1" xmlns="http://www.w3.org/2000/svg" xmlns:xlink="http://www.w3.org/1999/xlink" x="0px" y="0px"
	 viewBox="0 0 300 300" style="enable-background:new 0 0 300 300;" xml:space="preserve">
<style type="text/css">
	.st0{fill:#FFFFFF;}
	.st1{opacity:0.2;fill:#37474E;enable-background:new    ;}
	.st2{fill:none;stroke:#515D63;stroke-width:4;stroke-linecap:round;stroke-linejoin:round;stroke-miterlimit:10;}
</style>
<g>
	<g>
		<circle class="st0" cx="150" cy="150" r="100"/>
	</g>
	<ellipse class="st1" cx="147.8" cy="216.1" rx="28.9" ry="3.5"/>
	<g>
		<g>
			<line class="st2" x1="165.3" y1="161.5" x2="158.7" y2="168.1"/>
			<path class="st2" d="M158.7,168.1c-27.3-5-63.3-48.4-56.1-69.3l94.5,94.5c1.8,1.8,1.8,4.8,0,6.6s-4.8,1.8-6.6,0
				C190.5,199.8,158.7,168.1,158.7,168.1"/>
		</g>
		<g>
			<path class="st2" d="M162.3,115.2c-5.1,5.1-6,12.7-2.8,18.7c-8.8,8.8-62.7,62.7-62.7,62.7c-1.8,1.8-1.8,4.8,0,6.6s4.8,1.8,6.6,0
				l62.7-62.7c6,3.2,13.6,2.3,18.7-2.8"/>
			<line class="st2" x1="162.3" y1="115.2" x2="182" y2="95.5"/>
			<line class="st2" x1="184.8" y1="137.7" x2="204.5" y2="118"/>
			<line class="st2" x1="172.8" y1="119.7" x2="189.5" y2="103"/>
			<line class="st2" x1="180.3" y1="127.2" x2="197" y2="110.5"/>
			<line class="st2" x1="165.3" y1="112.2" x2="187.8" y2="134.7"/>
		</g>
		<circle class="st0" cx="147.8" cy="152" r="31.5"/>
		<g>
			<path class="st2" d="M132.5,159.6c0,8.4,6.8,15.3,15.3,15.3s15.3-6.8,15.3-15.3l-30.5-15.3c0-8.4,6.8-15.3,15.3-15.3
				s15.3,6.8,15.3,15.3"/>
			<line class="st2" x1="147.8" y1="89.5" x2="147.8" y2="214.5"/>
		</g>
	</g>
</g>
</svg>
