<?xml version="1.0" encoding="utf-8"?>
<!-- Generator: Adobe Illustrator 19.1.0, SVG Export Plug-In . SVG Version: 6.00 Build 0)  -->
<svg version="1.1" id="Layer_1" xmlns="http://www.w3.org/2000/svg" xmlns:xlink="http://www.w3.org/1999/xlink" x="0px" y="0px"
	 viewBox="0 0 300 300" style="enable-background:new 0 0 300 300;" xml:space="preserve">
<style type="text/css">
	.st0{fill:#FFFFFF;}
	.st1{opacity:0.2;fill:#37474E;}
	.st2{fill:#FFD6C3;}
	.st3{fill:#F9836B;}
</style>
<g>
	<g>
		<circle class="st0" cx="150" cy="150" r="90"/>
	</g>
	<ellipse class="st1" cx="150.4" cy="199.9" rx="26" ry="3.1"/>
	<g>
		<path class="st2" d="M150.4,189c-0.2,0-0.4,0-0.6-0.1c-0.4-0.1-42.4-13.5-42.4-49.8c0-12.6,10.2-22.8,22.8-22.8
			c8.6,0,16.2,4.8,20.2,12.1c3.9-7.3,11.6-12.1,20.2-12.1c12.6,0,22.8,10.2,22.8,22.8c0,0.8,0,1.7-0.1,2.4
			c-1.8,34.4-41.9,47.2-42.3,47.3C150.8,189,150.6,189,150.4,189z"/>
		<path class="st3" d="M170.5,118.4c11.5,0,20.8,9.3,20.8,20.8c0,0.8,0,1.6-0.1,2.3c-1.7,33.5-40.9,45.6-40.9,45.6s-41-12.6-41-47.8
			c0-11.5,9.3-20.8,20.8-20.8c9.7,0,17.8,6.6,20.2,15.5C152.8,125,160.9,118.4,170.5,118.4 M170.5,114.4c-8.1,0-15.6,4-20.2,10.3
			c-4.6-6.3-12-10.3-20.2-10.3c-13.7,0-24.8,11.1-24.8,24.8c0,15.7,7.6,29.7,22.1,40.3c10.7,7.9,21.2,11.2,21.7,11.3
			c0.4,0.1,0.8,0.2,1.2,0.2c0.4,0,0.8-0.1,1.2-0.2c0.4-0.1,10.5-3.3,21-10.8c14.1-10.1,21.9-23.4,22.7-38.3c0.1-0.8,0.1-1.7,0.1-2.6
			C195.4,125.5,184.2,114.4,170.5,114.4L170.5,114.4z"/>
	</g>
</g>
</svg>
