<?xml version="1.0" encoding="utf-8"?>
<!-- Generator: Adobe Illustrator 19.1.0, SVG Export Plug-In . SVG Version: 6.00 Build 0)  -->
<svg version="1.1" id="Layer_1" xmlns="http://www.w3.org/2000/svg" xmlns:xlink="http://www.w3.org/1999/xlink" x="0px" y="0px"
	 viewBox="0 0 300 300" style="enable-background:new 0 0 300 300;" xml:space="preserve">
<style type="text/css">
	.st0{fill:none;}
</style>
<g>
	<circle class="st0" cx="150" cy="150" r="100"/>
</g>
<g>
	<path d="M137.1,227.3c-17.4-0.8-34.2-4.7-50.3-11.7V176c9.2,4.7,19.2,8.6,30.1,11.8c10.8,3.1,20.3,4.7,28.5,4.7
		c6.8,0,11.7-0.8,14.9-2.4c3.1-1.6,4.7-4.4,4.7-8.2c0-2.6-1.1-4.9-3.4-6.7c-2.3-1.8-6-3.9-11.3-6.2c-5.3-2.3-12.4-5.1-21.4-8.4
		c-10.1-3.7-18.3-7.9-24.5-12.6c-6.2-4.7-10.7-9.9-13.5-15.6c-2.8-5.8-4.2-12.9-4.2-21.5c0-13.1,4.2-23.4,12.6-30.8
		c8.4-7.4,21.1-12,37.9-13.7V50h24.7v16.1c15.8,0.9,31.8,4.8,47.8,11.7l-14.2,34c-16.6-7.5-31.6-11.2-45-11.2
		c-6.4,0-10.8,0.8-13.4,2.3c-2.6,1.6-3.9,3.8-3.9,6.9c0,2.6,0.9,4.8,2.8,6.5s5.1,3.6,9.7,5.7c4.6,2.1,11,4.6,19.2,7.3
		c16.6,5.9,28.6,12.6,35.8,20.1s10.9,17.2,10.9,29c0,13.4-4.2,24.2-12.7,32.6s-20.8,13.5-37,15.5v23h-24.7V227.3z"/>
</g>
</svg>
