<?xml version="1.0" encoding="utf-8"?>
<!-- Generator: Adobe Illustrator 19.1.0, SVG Export Plug-In . SVG Version: 6.00 Build 0)  -->
<svg version="1.1" id="Layer_1" xmlns="http://www.w3.org/2000/svg" xmlns:xlink="http://www.w3.org/1999/xlink" x="0px" y="0px"
	 viewBox="126 -126 300 300" style="enable-background:new 126 -126 300 300;" xml:space="preserve">
<style type="text/css">
	.st0{opacity:0.2;enable-background:new    ;}
	.st1{fill:#37474E;}
	.st2{opacity:0.2;fill:#37474E;enable-background:new    ;}
	.st3{fill:#FFD6C3;stroke:#F9836B;stroke-width:4;stroke-linecap:round;stroke-linejoin:round;stroke-miterlimit:10;}
	.st4{fill:none;stroke:#F9836B;stroke-width:4;stroke-linecap:round;stroke-linejoin:round;stroke-miterlimit:10;}
	.st5{fill:#F9836B;}
	.st6{enable-background:new    ;}
	.st7{fill:#FFFFFF;}
</style>
<g>
	<g>
		<g class="st0">
			<circle class="st1" cx="276" cy="24" r="112.5"/>
		</g>
		<ellipse class="st2" cx="276" cy="108" rx="52" ry="6.2"/>
		<g>
			<rect x="222.7" y="-27" class="st3" width="106.6" height="106.6"/>
			<rect x="231.3" y="-3.2" class="st3" width="88.8" height="74"/>
			<line class="st4" x1="253.4" y1="-3.2" x2="253.4" y2="70.8"/>
			<line class="st4" x1="275.6" y1="-3.2" x2="275.6" y2="70.8"/>
			<line class="st4" x1="298.1" y1="-3.2" x2="298.1" y2="70.8"/>
			<line class="st4" x1="231.3" y1="33.8" x2="320.1" y2="33.8"/>
			<line class="st4" x1="231.8" y1="52.1" x2="320.6" y2="52.1"/>
			<line class="st4" x1="231.3" y1="15.3" x2="320.1" y2="15.3"/>
			<path class="st3" d="M246.4-39.6H246c-3,0-5.5,2.5-5.5,5.5v18.7c0,3,2.5,5.5,5.5,5.5h0.4c3,0,5.5-2.5,5.5-5.5v-18.7
				C251.9-37.1,249.4-39.6,246.4-39.6z"/>
			<path class="st3" d="M276-39.6h-0.4c-3,0-5.5,2.5-5.5,5.5v18.7c0,3,2.5,5.5,5.5,5.5h0.4c3,0,5.5-2.5,5.5-5.5v-18.7
				C281.6-37.1,279.1-39.6,276-39.6z"/>
			<path class="st3" d="M305.6-39.6h-0.4c-3,0-5.5,2.5-5.5,5.5v18.7c0,3,2.5,5.5,5.5,5.5h0.4c3,0,5.5-2.5,5.5-5.5v-18.7
				C311.2-37.1,308.7-39.6,305.6-39.6z"/>
		</g>
	</g>
	<g>
		<circle class="st5" cx="196.5" cy="-55.5" r="33"/>
		<g class="st6">
			<path class="st7" d="M184.2-35.5v-2.7l14-15.8c2.6-2.9,4.4-5.4,5.5-7.3c1.1-2,1.6-3.8,1.6-5.6c0-2.6-0.8-4.8-2.3-6.4
				c-1.5-1.6-3.6-2.4-6.3-2.4c-3.2,0-5.7,0.9-7.4,2.7c-1.7,1.8-2.5,4.2-2.5,7.2h-3.3l-0.1-0.2c-0.1-3.6,1-6.6,3.4-9
				c2.4-2.5,5.6-3.7,9.8-3.7c3.7,0,6.6,1.1,8.8,3.2s3.3,4.9,3.3,8.5c0,2.3-0.7,4.7-2.2,7.1c-1.5,2.4-3.5,5.1-6.1,8.1l-11.8,13.3
				l0.1,0.1h18.6l0.3-6h3.1v9H184.2z"/>
		</g>
	</g>
</g>
</svg>
