<?xml version="1.0" encoding="utf-8"?>
<!-- Generator: Adobe Illustrator 19.1.0, SVG Export Plug-In . SVG Version: 6.00 Build 0)  -->
<svg version="1.1" id="Layer_1" xmlns="http://www.w3.org/2000/svg" xmlns:xlink="http://www.w3.org/1999/xlink" x="0px" y="0px"
	 viewBox="126 -126 300 300" style="enable-background:new 126 -126 300 300;" xml:space="preserve">
<style type="text/css">
	.st0{fill:#FFFFFF;}
	.st1{opacity:0.2;fill:#37474E;enable-background:new    ;}
	.st2{fill:#FFD6C3;stroke:#F9836B;stroke-width:4;stroke-linecap:round;stroke-linejoin:round;stroke-miterlimit:10;}
	.st3{fill:none;stroke:#F9836B;stroke-width:4;stroke-linecap:round;stroke-linejoin:round;stroke-miterlimit:10;}
</style>
<g>
	<circle class="st0" cx="276" cy="22.6" r="112.5"/>
</g>
<ellipse class="st1" cx="276" cy="106.6" rx="52" ry="6.2"/>
<g>
	<rect x="222.7" y="-28.4" class="st2" width="106.6" height="106.6"/>
	<rect x="231.3" y="-4.6" class="st2" width="88.8" height="74"/>
	<line class="st3" x1="253.4" y1="-4.6" x2="253.4" y2="69.4"/>
	<line class="st3" x1="275.6" y1="-4.6" x2="275.6" y2="69.4"/>
	<line class="st3" x1="298.1" y1="-4.6" x2="298.1" y2="69.4"/>
	<line class="st3" x1="231.3" y1="32.4" x2="320.1" y2="32.4"/>
	<line class="st3" x1="231.8" y1="50.7" x2="320.6" y2="50.7"/>
	<line class="st3" x1="231.3" y1="13.9" x2="320.1" y2="13.9"/>
	<path class="st2" d="M246.4-41H246c-3,0-5.5,2.5-5.5,5.5v18.7c0,3,2.5,5.5,5.5,5.5h0.4c3,0,5.5-2.5,5.5-5.5v-18.7
		C251.9-38.5,249.4-41,246.4-41z"/>
	<path class="st2" d="M276-41h-0.4c-3,0-5.5,2.5-5.5,5.5v18.7c0,3,2.5,5.5,5.5,5.5h0.4c3,0,5.5-2.5,5.5-5.5v-18.7
		C281.6-38.5,279.1-41,276-41z"/>
	<path class="st2" d="M305.6-41h-0.4c-3,0-5.5,2.5-5.5,5.5v18.7c0,3,2.5,5.5,5.5,5.5h0.4c3,0,5.5-2.5,5.5-5.5v-18.7
		C311.2-38.5,308.7-41,305.6-41z"/>
</g>
</svg>
