<?xml version="1.0" encoding="utf-8"?>
<!-- Generator: Adobe Illustrator 19.1.0, SVG Export Plug-In . SVG Version: 6.00 Build 0)  -->
<svg version="1.1" id="Layer_1" xmlns="http://www.w3.org/2000/svg" xmlns:xlink="http://www.w3.org/1999/xlink" x="0px" y="0px"
	 viewBox="126 -126 300 300" style="enable-background:new 126 -126 300 300;" xml:space="preserve">
<style type="text/css">
	.st0{fill:#FFFFFF;}
	.st1{fill:#FFD6C3;stroke:#F9836B;stroke-width:4;stroke-linecap:round;stroke-linejoin:round;stroke-miterlimit:10;}
	.st2{fill:none;stroke:#F9836B;stroke-width:4;stroke-linecap:round;stroke-linejoin:round;stroke-miterlimit:10;}
	.st3{opacity:0.2;fill:#37474E;enable-background:new    ;}
</style>
<g>
	<circle class="st0" cx="276" cy="24" r="112.5"/>
</g>
<g>
	<g>
		<ellipse class="st1" cx="276" cy="42.6" rx="70" ry="49"/>
		<g>
			<path class="st2" d="M319.6,42.6c0,16.9-19.5,30.5-43.6,30.5"/>
			<path class="st2" d="M232.4,42.6c0-16.9,19.5-30.5,43.6-30.5"/>
			<path class="st2" d="M276,12c24.1,0,43.6,13.6,43.6,30.5"/>
		</g>
	</g>
	<g>
		<ellipse class="st1" cx="276" cy="24" rx="70" ry="49"/>
		<g>
			<path class="st2" d="M319.6,24c0,16.9-19.5,30.5-43.6,30.5"/>
			<path class="st2" d="M232.4,24c0-16.9,19.5-30.5,43.6-30.5"/>
			<path class="st2" d="M276-6.5c24.1,0,43.6,13.6,43.6,30.5"/>
		</g>
	</g>
	<g>
		<ellipse class="st1" cx="276" cy="5.4" rx="70" ry="49"/>
		<g>
			<path class="st2" d="M319.6,5.4c0,16.9-19.5,30.5-43.6,30.5"/>
			<path class="st2" d="M232.4,5.4c0-16.9,19.5-30.5,43.6-30.5"/>
			<path class="st2" d="M276-25.1c24.1,0,43.6,13.6,43.6,30.5"/>
		</g>
	</g>
</g>
<ellipse class="st3" cx="276" cy="106.6" rx="52" ry="6.2"/>
</svg>
