<?xml version="1.0" encoding="utf-8"?>
<!-- Generator: Adobe Illustrator 19.1.0, SVG Export Plug-In . SVG Version: 6.00 Build 0)  -->
<svg version="1.1" id="Layer_1" xmlns="http://www.w3.org/2000/svg" xmlns:xlink="http://www.w3.org/1999/xlink" x="0px" y="0px"
	 viewBox="-67 18 30 30" style="enable-background:new -67 18 30 30;" xml:space="preserve">
<style type="text/css">
	.st0{fill:#FFFFFF;}
</style>
<g>
	<path class="st0" d="M-43.5,34.8v6.3h-3.6v-5.9c0-1.5-0.5-2.5-1.8-2.5c-1,0-1.6,0.7-1.9,1.3c-0.2,0.3-0.2,0.7-0.2,1v6.1h-3.6
		c0,0,0-9.9,0-11h3.6v1.6l0,0l0,0l0,0c0.5-0.7,1.3-1.8,3.3-1.8C-45.3,29.9-43.5,31.5-43.5,34.8L-43.5,34.8z M-58.4,24.9
		c-1.2,0-2.1,0.8-2.1,1.9c0,1.1,0.8,1.9,2,1.9l0,0c1.3,0,2.1-0.8,2.1-1.9C-56.4,25.7-57.2,24.9-58.4,24.9L-58.4,24.9z M-60.3,41.1
		h3.6v-11h-3.6V41.1z"/>
</g>
</svg>
