<?xml version="1.0" encoding="utf-8"?>
<!-- Generator: Adobe Illustrator 19.1.0, SVG Export Plug-In . SVG Version: 6.00 Build 0)  -->
<svg version="1.1" id="Layer_1" xmlns="http://www.w3.org/2000/svg" xmlns:xlink="http://www.w3.org/1999/xlink" x="0px" y="0px"
	 viewBox="-67 18 30 30" style="enable-background:new -67 18 30 30;" xml:space="preserve">
<style type="text/css">
	.st0{fill:#FFFFFF;}
</style>
<g>
	<path class="st0" d="M-43.9,28c-0.6,0.3-1.2,0.4-1.9,0.5c0.7-0.4,1.2-1.1,1.5-1.8c-0.7,0.3-1.4,0.6-2.1,0.7
		c-0.6-0.6-1.5-1.1-2.4-1.1c-1.8,0-3.3,1.5-3.3,3.3c0,0.3,0,0.5,0.1,0.8c-2.9-0.1-5.4-1.4-7-3.4c-0.3,0.5-0.5,1.1-0.5,1.7
		c0,1.2,0.6,2.2,1.5,2.8c-0.5,0-1.1-0.2-1.5-0.4l0,0c0,1.6,1.2,3,2.7,3.3c-0.3,0.1-0.6,0.1-0.9,0.1c-0.2,0-0.4,0-0.6-0.1
		c0.4,1.3,1.7,2.3,3.1,2.3c-1.1,0.9-2.6,1.4-4.1,1.4c-0.3,0-0.5,0-0.8,0c1.5,0.9,3.2,1.5,5.1,1.5c6.1,0,9.5-5.1,9.5-9.5v-0.4
		C-44.9,29.2-44.3,28.6-43.9,28L-43.9,28z"/>
</g>
</svg>
