<?xml version="1.0" encoding="utf-8"?>
<!-- Generator: Adobe Illustrator 19.1.0, SVG Export Plug-In . SVG Version: 6.00 Build 0)  -->
<svg version="1.1" id="Layer_1" xmlns="http://www.w3.org/2000/svg" xmlns:xlink="http://www.w3.org/1999/xlink" x="0px" y="0px"
	 viewBox="-67 18 30 30" style="enable-background:new -67 18 30 30;" xml:space="preserve">
<style type="text/css">
	.st0{fill:#FFFFFF;}
</style>
<g>
	<path class="st0" d="M-58.3,24.5h12.6c1.2,0,2.2,0.9,2.2,2.2v12.6c0,1.3-1,2.2-2.2,2.2h-12.6c-1.2,0-2.2-0.9-2.2-2.2V26.7
		C-60.5,25.4-59.5,24.5-58.3,24.5L-58.3,24.5z M-48.1,26.4c-0.4,0-0.8,0.3-0.8,0.8V29c0,0.4,0.3,0.8,0.8,0.8h1.9
		c0.4,0,0.8-0.3,0.8-0.8v-1.8c0-0.4-0.3-0.8-0.8-0.8H-48.1z M-45.4,31.7h-1.5c0.1,0.5,0.2,1,0.2,1.5c0,2.8-2.4,5.1-5.3,5.1
		s-5.3-2.3-5.3-5.1c0-0.5,0.1-1,0.2-1.5h-1.5v7.2c0,0.4,0.3,0.7,0.7,0.7h11.8c0.4,0,0.7-0.3,0.7-0.7V31.7z M-52,29.7
		c-1.9,0-3.4,1.5-3.4,3.3s1.5,3.3,3.4,3.3s3.4-1.5,3.4-3.3C-48.6,31.2-50.1,29.7-52,29.7L-52,29.7z"/>
</g>
</svg>
