<?xml version="1.0" encoding="utf-8"?>
<!-- Generator: Adobe Illustrator 19.1.0, SVG Export Plug-In . SVG Version: 6.00 Build 0)  -->
<svg version="1.1" id="Layer_1" xmlns="http://www.w3.org/2000/svg" xmlns:xlink="http://www.w3.org/1999/xlink" x="0px" y="0px"
	 viewBox="0 0 165 65" style="enable-background:new 0 0 165 65;" xml:space="preserve">
<style type="text/css">
	.st0{fill:#FFFFFF;}
	.st1{fill:#FF6243;}
</style>
<g>
	<g>
		<path class="st0" d="M61,6.2h-2.3c-0.4,0-0.7-0.3-0.7-0.7v-1c0-0.4,0.3-0.7,0.7-0.7h7.6c0.4,0,0.7,0.3,0.7,0.7v1
			c0,0.4-0.3,0.7-0.7,0.7h-2l-0.2,21.9h9.1l0.2-3.5c0-0.4,0.3-0.7,0.7-0.7h1.4c0.4,0,0.7,0.3,0.7,0.7L76,29.7c0,0.4-0.3,0.7-0.7,0.7
			H58.7c-0.4,0-0.7-0.3-0.7-0.7v-1c0-0.4,0.3-0.7,0.7-0.7h2.2L61,6.2z"/>
		<path class="st0" d="M77.8,10.8h4.9c0.4,0,0.7,0.3,0.7,0.7c0,3.3-0.2,6.7-0.2,10.9c0,2.9,0.5,5.9,4.3,5.9c5.7,0,5.8-6.2,5.8-9
			v-6.1H91c-0.4,0-0.7-0.3-0.7-0.7v-1c0-0.4,0.3-0.7,0.7-0.7h4.9c0.4,0,0.7,0.3,0.7,0.7L96.5,28h2c0.4,0,0.7,0.3,0.7,0.7v1
			c0,0.4-0.3,0.7-0.7,0.7H94c-0.4,0-0.7-0.3-0.7-0.7c0-0.6,0.1-1.3,0.1-1.6l0.3-2h-0.1c-0.8,2.3-3.3,4.8-6.6,4.8
			c-5.6,0-6.9-3.6-6.9-8c0-3.6,0.1-6.6,0.2-9.7h-2.4c-0.4,0-0.7-0.3-0.7-0.7v-1C77.1,11.1,77.4,10.8,77.8,10.8z"/>
		<path class="st0" d="M115.5,28.1h1.8c0-3,0.2-6.2,0.2-9.4c0-1.9-0.1-5.7-4.5-5.7c-2.8,0-5.8,1.7-5.8,7l-0.1,8.1h2.1
			c0.4,0,0.7,0.3,0.7,0.7v1c0,0.4-0.3,0.7-0.7,0.7h-7.1c-0.4,0-0.7-0.3-0.7-0.7v-1c0-0.4,0.3-0.7,0.7-0.7h1.8l0.2-14.9h-2.4
			c-0.4,0-0.7-0.3-0.7-0.7v-1c0-0.4,0.3-0.7,0.7-0.7h4.8c0.4,0,0.7,0.3,0.7,0.7c0,0.6-0.1,1.3-0.1,1.6l-0.3,2h0.1c0.8-3,4-4.8,7-4.8
			c5.4,0,6.7,3.7,6.7,7.4c0,3.4-0.2,7.3-0.2,10.3h2.2c0.4,0,0.7,0.3,0.7,0.7v1c0,0.4-0.3,0.7-0.7,0.7h-7.1c-0.4,0-0.7-0.3-0.7-0.7
			v-1C114.8,28.4,115.1,28.1,115.5,28.1z"/>
		<path class="st0" d="M140.6,29.5c0,0.3-0.2,0.6-0.5,0.6c-1.4,0.4-3.2,0.8-5.2,0.8c-7.8,0-10.2-5.1-10.2-10.3
			c0-7.5,5.4-10.3,9.8-10.3c2.2,0,4.3,0.3,6.4,1v4.4c0,0.4-0.3,0.7-0.7,0.7h-1.4c-0.4,0-0.7-0.3-0.7-0.7v-2.4
			c-0.8-0.3-2.4-0.5-3.3-0.5c-5.7,0-6.8,4.5-6.8,7.7c0,1.1,0.2,7.7,7.5,7.7c1.6,0,2.9-0.4,4.3-0.8c0.5-0.1,1,0.2,0.9,0.7L140.6,29.5
			z"/>
		<path class="st0" d="M145.8,3.6h-3.1c-0.4,0-0.7-0.3-0.7-0.7v-1c0-0.4,0.3-0.7,0.7-0.7h5.5c0.4,0,0.7,0.3,0.7,0.7v9.6
			c0,0.9-0.2,2.8-0.4,3.7h0.1c0.8-3,4-4.8,7-4.8c5.4,0,6.7,3.7,6.7,7.4c0,3.4-0.2,7.3-0.2,10.3h2.2c0.4,0,0.7,0.3,0.7,0.7v1
			c0,0.4-0.3,0.7-0.7,0.7h-7.1c-0.4,0-0.7-0.3-0.7-0.7v-1c0-0.4,0.3-0.7,0.7-0.7h1.8c0-3,0.2-6.2,0.2-9.4c0-1.9-0.1-5.7-4.5-5.7
			c-2.8,0-5.8,1.7-5.8,7l-0.1,8.1h2.2c0.4,0,0.7,0.3,0.7,0.7v1c0,0.4-0.3,0.7-0.7,0.7h-7.4c-0.4,0-0.7-0.3-0.7-0.7v-1
			c0-0.4,0.3-0.7,0.7-0.7h2.1L145.8,3.6z"/>
	</g>
	<g>
		<path class="st0" d="M59.9,38h-2.3c-0.4,0-0.7-0.3-0.7-0.7v-2.5c0-0.4,0.3-0.7,0.7-0.7h7c0.4,0,0.7,0.3,0.7,0.7v7.1
			c0,1.6-0.2,3.4-0.4,5.3H65c1.2-2.7,3.4-4.2,6.7-4.2c4.4,0,7.7,3.2,7.7,9.1c0,5.4-2.6,11.7-11.1,11.7c-3.5,0-7-0.9-8.3-1.7L59.9,38
			L59.9,38z M65.1,58.8c0.7,0.4,2.2,0.7,3.4,0.7c3.8,0,5.5-3.2,5.5-6.8c0-2.7-1-5.4-4.3-5.4c-3.5,0-4.6,2.6-4.6,5V58.8z"/>
		<path class="st0" d="M84.9,47.3H83c-0.4,0-0.7-0.3-0.7-0.7v-2.5c0-0.4,0.3-0.7,0.7-0.7h7c0,1.4-0.1,2.7-0.3,4.6h0.1
			c0.8-3.4,2.7-5,5.7-5c0.4,0,0.8,0,1.1,0.1c0.4,0.1,0.6,0.4,0.6,0.8L97,47.3c0,0.4-0.4,0.7-0.8,0.7c-0.3,0-0.7-0.1-1-0.1
			c-2.9,0-5,2-5,5.3v6.4H92c0.4,0,0.7,0.3,0.7,0.7v2.5c0,0.4-0.3,0.7-0.7,0.7h-8.6c-0.4,0-0.7-0.3-0.7-0.7v-2.5
			c0-0.4,0.3-0.7,0.7-0.7h1.5V47.3z"/>
		<path class="st0" d="M103.2,54.6c0.2,3.2,2.6,5.1,6.3,5.1c2.1,0,3.6-0.3,5.4-1c0.5-0.2,1,0.2,1,0.7l-0.2,2.6
			c0,0.3-0.2,0.5-0.5,0.6c-2.3,0.8-4.4,1.1-6.9,1.1c-7.7,0-10.9-4.8-10.9-10.3c0-6.2,3.8-10.5,10-10.5c6.6,0,9.4,4.8,9.6,10.9
			c0,0.4-0.3,0.7-0.7,0.7h-13.1V54.6z M111.3,51c0-2.7-1.6-4.3-4-4.3s-3.8,1.6-4.1,4.3H111.3z"/>
		<path class="st0" d="M132.3,50.7c0-3-1.3-3.8-3.8-3.8c-0.8,0-2.4,0.2-3.3,0.6v2c0,0.4-0.3,0.7-0.7,0.7h-3.1
			c-0.4,0-0.7-0.3-0.7-0.7v-3.9c0-0.3,0.1-0.5,0.4-0.6c1.5-0.7,4.3-1.9,7.6-1.9c5.3,0,8.7,1.9,8.7,7.7c0,3.3-0.1,6-0.2,8.8h1.5
			c0.4,0,0.7,0.3,0.7,0.7v2.5c0,0.4-0.3,0.7-0.7,0.7h-5.3c-0.4,0-0.7-0.3-0.7-0.7v-0.5c0-1.3,0.1-2,0.3-2.7h-0.1
			c-1.3,3-3.2,4.4-6.5,4.4c-4.5,0-6.7-2.7-6.7-5.8c0-2.9,1.9-4.7,4-5.5c2-0.7,4.7-0.9,8.6-0.9L132.3,50.7L132.3,50.7z M130.7,54.9
			c-4.3,0-5.7,0.9-5.7,2.6c0,1.2,0.8,2.4,2.9,2.4s4.3-1.4,4.3-5H130.7z"/>
		<path class="st0" d="M143.2,59.5h1.5V38h-2.3c-0.4,0-0.7-0.3-0.7-0.7v-2.5c0-0.4,0.3-0.7,0.7-0.7h7c0.4,0,0.7,0.3,0.7,0.7V52
			l5.3-4.1c0.3-0.2,0.5-0.3,0.8-0.5v-0.1h-2c-0.4,0-0.7-0.3-0.7-0.7v-2.5c0-0.4,0.3-0.7,0.7-0.7h8.7c0.4,0,0.7,0.3,0.7,0.7v2.5
			c0,0.4-0.3,0.7-0.7,0.7h-1l-6.2,5l6.7,7.2h1.5c0.4,0,0.7,0.3,0.7,0.7v2.5c0,0.4-0.3,0.7-0.7,0.7h-9.2c-0.4,0-0.7-0.3-0.7-0.7v-2.5
			c0-0.4,0.3-0.7,0.7-0.7h1.4v-0.1c-0.6-0.3-1.1-0.8-1.7-1.4l-4.3-4.8v6.2h1.1c0.4,0,0.7,0.3,0.7,0.7v2.5c0,0.4-0.3,0.7-0.7,0.7
			h-7.9c-0.4,0-0.7-0.3-0.7-0.7v-2.5C142.5,59.8,142.8,59.5,143.2,59.5z"/>
	</g>
	<path class="st1" d="M38.7,16.1c-5-5-11.9-7.4-19.1-6.4c-3.9,0.5-7.6,2-10.6,4.4C3.3,18.5,0.1,25,0,32c-0.1,6.2,2.6,12.2,7,16.6
		l14.3,14.3c0.8,0.8,2,0.8,2.7,0l14.7-14.7c4.3-4.3,6.6-10,6.6-16C45.3,26.1,43,20.4,38.7,16.1z M34.9,44.4
		c-3.3,3.3-7.6,5.1-12.3,5.1c-4.6,0-9-1.8-12.3-5.1s-5.1-7.6-5.1-12.3c0-4.6,1.8-9,5.1-12.3s7.6-5.1,12.3-5.1c4.6,0,9,1.8,12.3,5.1
		S40,27.4,40,32.1S38.2,41.1,34.9,44.4z"/>
	<g>
		<path class="st1" d="M32.2,21.9c-1.2-1.2-2.5-2.1-3.9-2.7c-0.6-0.3-1.2-0.5-1.9-0.6c-1.2-0.3-2.6,0.1-3.5,1l-3,3l-9.6,10.5
			c-0.3,0.3-0.3,0.9,0,1.2l0,0c0.3,0.3,0.9,0.3,1.2,0l10.1-10.1l0,0c0.5-0.5,1.2-0.5,1.7,0s0.5,1.2,0,1.7l0,0l0,0l-9.8,10.3
			c-0.3,0.3-0.3,0.9,0,1.2l0.2,0.2c0.3,0.3,0.9,0.3,1.2,0L25,27.5l0,0l0,0c0.5-0.5,1.2-0.5,1.7,0s0.5,1.2,0,1.7l0,0l0,0L16.5,39.3
			c-0.3,0.3-0.3,0.9,0,1.2l0.2,0.2c0.3,0.3,0.9,0.3,1.2,0l10.3-9.8l0,0c0.4-0.4,1.1-0.7,1.7,0c0.7,0.7,0.3,1.3,0,1.6l0,0l0,0
			L19.8,42.6c-0.3,0.3-0.3,0.9,0,1.2l0,0c0.3,0.3,0.9,0.3,1.2,0l10.5-9.7l3-3c0.9-0.9,1.3-2.2,1-3.5c-0.2-0.6-0.4-1.3-0.6-1.9
			C34.3,24.4,33.4,23,32.2,21.9z"/>
		<path class="st1" d="M48.9,4.5c-1.8-1.4-4.4-1.2-6,0.4l-4.6,4.6c-0.6,0.6-0.5,1.6,0.1,2.1c1.4,1.2,2.8,2.5,3.9,3.9
			c0.5,0.7,1.5,0.7,2.1,0.1l4.8-4.8C51.1,9.2,51,6.2,48.9,4.5z"/>
	</g>
</g>
</svg>
