<?xml version="1.0" encoding="utf-8"?>
<!-- Generator: Adobe Illustrator 21.1.0, SVG Export Plug-In . SVG Version: 6.00 Build 0)  -->
<svg version="1.1" id="Layer_1" xmlns="http://www.w3.org/2000/svg" xmlns:xlink="http://www.w3.org/1999/xlink" x="0px" y="0px"
	 viewBox="0 0 316 65" style="enable-background:new 0 0 316 65;" xml:space="preserve">
<style type="text/css">
	.st0{fill:#3F5AA2;}
	.st1{fill:#FFFFFF;}
	.st2{font-family:'RobotoCondensed-Light';}
	.st3{font-size:22px;}
</style>
<g>
	<path class="st0" d="M283.2,63.7H32.4C15,63.7,1,49.7,1,32.4v0C1,15,15,1,32.4,1h250.8c17.3,0,31.4,14,31.4,31.4v0
		C314.5,49.7,300.5,63.7,283.2,63.7z"/>
	<g>
		<text transform="matrix(1 0 0 1 72.5002 38.9775)" class="st1 st2 st3">Compartir en Facebook</text>
		<path class="st1" d="M52.1,31h-3.8c0,6.1,0,12.3,0,12.3h-4.9c0,0,0-6.1,0-12.3H41v-3.6h2.4v-3c0-2,0.8-5.1,5-5.1H52v4.5
			c0,0-1.8,0-2.2,0s-1.5-0.1-1.5,0.8v2.8h4.2L52.1,31z"/>
	</g>
</g>
</svg>
