<?xml version="1.0" encoding="utf-8"?>
<!-- Generator: Adobe Illustrator 21.1.0, SVG Export Plug-In . SVG Version: 6.00 Build 0)  -->
<svg version="1.1" id="Layer_1" xmlns="http://www.w3.org/2000/svg" xmlns:xlink="http://www.w3.org/1999/xlink" x="0px" y="0px"
	 viewBox="0 0 316 65" style="enable-background:new 0 0 316 65;" xml:space="preserve">
<style type="text/css">
	.st0{fill:#3F5AA2;}
	.st1{fill:#FFFFFF;}
</style>
<g>
	<path class="st0" d="M283.2,63.7H32.4C15,63.7,1,49.7,1,32.4v0C1,15,15,1,32.4,1h250.8c17.3,0,31.4,14,31.4,31.4v0
		C314.5,49.7,300.5,63.7,283.2,63.7z"/>
	<g>
		<g>
			<path class="st1" d="M83.7,34.1c-0.1,1.8-0.6,3-1.4,3.9c-0.8,0.8-2,1.2-3.4,1.2c-1.5,0-2.7-0.6-3.6-1.7c-0.9-1.1-1.3-2.7-1.3-4.7
				v-3.4c0-2,0.4-3.5,1.3-4.6s2.1-1.7,3.7-1.7c1.5,0,2.6,0.4,3.4,1.3c0.8,0.8,1.3,2.1,1.4,3.9h-1.2c-0.1-1.4-0.4-2.4-1-3
				c-0.6-0.6-1.4-0.9-2.5-0.9c-1.2,0-2.1,0.4-2.8,1.3c-0.7,0.9-1,2.2-1,3.8v3.4c0,1.7,0.3,3,1,3.9c0.6,0.9,1.5,1.4,2.7,1.4
				c1.2,0,2.1-0.3,2.6-0.9c0.5-0.6,0.9-1.6,1-3H83.7z"/>
			<path class="st1" d="M86.1,32.6c0-1.7,0.4-3,1.1-4c0.8-1,1.8-1.5,3.1-1.5c1.3,0,2.4,0.5,3.1,1.4c0.8,1,1.1,2.3,1.1,4v1.2
				c0,1.7-0.4,3-1.1,4c-0.8,1-1.8,1.4-3.1,1.4c-1.3,0-2.3-0.5-3.1-1.4c-0.8-0.9-1.2-2.2-1.2-3.8V32.6z M87.3,33.8
				c0,1.3,0.3,2.4,0.8,3.2c0.5,0.8,1.3,1.1,2.2,1.1c1,0,1.7-0.4,2.3-1.1c0.5-0.7,0.8-1.8,0.8-3.2v-1.2c0-1.3-0.3-2.4-0.8-3.2
				c-0.5-0.8-1.3-1.2-2.2-1.2c-0.9,0-1.7,0.4-2.2,1.1c-0.5,0.8-0.8,1.8-0.8,3.1V33.8z"/>
			<path class="st1" d="M98.4,27.4l0,1.7c0.7-1.3,1.8-2,3.1-2c1.5,0,2.5,0.7,2.9,2.1c0.4-0.7,0.8-1.2,1.4-1.6
				c0.6-0.4,1.2-0.5,1.9-0.5c2.1,0,3.2,1.3,3.2,4V39h-1.2v-7.7c0-1-0.2-1.7-0.6-2.2c-0.4-0.5-0.9-0.7-1.8-0.7
				c-0.7,0-1.4,0.3-1.9,0.9c-0.5,0.6-0.8,1.3-0.9,2.1V39h-1.2v-7.7c0-1-0.2-1.8-0.6-2.3s-1-0.7-1.8-0.7c-0.7,0-1.2,0.2-1.7,0.7
				c-0.5,0.5-0.8,1.1-1,1.9V39h-1.2V27.4H98.4z"/>
			<path class="st1" d="M122,33.7c0,1.8-0.3,3.2-0.9,4.1c-0.6,0.9-1.6,1.4-2.8,1.4c-1.3,0-2.4-0.5-3-1.6v5.9h-1.2V27.4h1.1l0.1,1.6
				c0.7-1.2,1.7-1.8,3-1.8c1.3,0,2.2,0.4,2.8,1.3c0.6,0.9,0.9,2.2,0.9,4.1V33.7z M120.8,32.6c0-1.5-0.2-2.6-0.7-3.3
				s-1.2-1.1-2.2-1.1c-1.3,0-2.2,0.6-2.7,1.9v6.1c0.5,1.2,1.4,1.7,2.7,1.7c1,0,1.7-0.4,2.1-1.1c0.5-0.7,0.7-1.8,0.7-3.2V32.6z"/>
			<path class="st1" d="M130.9,39c-0.1-0.4-0.2-0.9-0.2-1.6c-0.4,0.6-0.8,1-1.4,1.3c-0.6,0.3-1.2,0.5-1.8,0.5c-1,0-1.8-0.3-2.3-0.8
				c-0.6-0.6-0.8-1.4-0.8-2.4c0-1.1,0.4-2,1.2-2.7c0.8-0.7,1.8-1,3.2-1h2v-1.6c0-0.8-0.2-1.4-0.6-1.8c-0.4-0.4-1-0.5-1.8-0.5
				c-0.7,0-1.3,0.2-1.8,0.6s-0.7,1-0.7,1.7l-1.2,0c0-1,0.4-1.8,1.1-2.4c0.7-0.7,1.6-1,2.7-1c1.2,0,2.1,0.3,2.7,0.9
				c0.6,0.6,0.9,1.4,0.9,2.6v5.7c0,1.1,0.1,2,0.3,2.6V39H130.9z M127.7,38c0.7,0,1.3-0.2,1.9-0.5c0.5-0.4,0.9-0.9,1.2-1.5v-2.8h-1.9
				c-1.1,0-1.9,0.3-2.5,0.7c-0.6,0.5-0.8,1.1-0.8,1.9C125.5,37.3,126.2,38,127.7,38z"/>
			<path class="st1" d="M139.7,28.5c-0.3,0-0.5-0.1-0.8-0.1c-0.7,0-1.2,0.2-1.7,0.7c-0.4,0.5-0.8,1.1-1,1.9v8h-1.2V27.4h1.2l0,1.7
				c0.6-1.3,1.5-2,2.7-2c0.3,0,0.6,0,0.7,0.1L139.7,28.5z"/>
			<path class="st1" d="M144.1,24.4v3h2v1.1h-2v7.7c0,0.6,0.1,1.1,0.3,1.4c0.2,0.3,0.5,0.5,1,0.5c0.2,0,0.5,0,0.9-0.1l0,1.1
				c-0.3,0.1-0.7,0.2-1.2,0.2c-1.4,0-2.1-1-2.1-2.9v-7.9h-1.8v-1.1h1.8v-3H144.1z"/>
			<path class="st1" d="M148.7,24c0-0.2,0.1-0.5,0.2-0.6c0.1-0.2,0.3-0.3,0.6-0.3c0.3,0,0.4,0.1,0.6,0.3s0.2,0.4,0.2,0.6
				c0,0.2-0.1,0.4-0.2,0.6s-0.3,0.3-0.6,0.3c-0.3,0-0.4-0.1-0.6-0.3C148.7,24.5,148.7,24.2,148.7,24z M150,39h-1.2V27.4h1.2V39z"/>
			<path class="st1" d="M157.9,28.5c-0.3,0-0.5-0.1-0.8-0.1c-0.7,0-1.2,0.2-1.7,0.7c-0.4,0.5-0.8,1.1-1,1.9v8h-1.2V27.4h1.2l0,1.7
				c0.6-1.3,1.5-2,2.7-2c0.3,0,0.6,0,0.7,0.1L157.9,28.5z"/>
			<path class="st1" d="M168.8,39.2c-1.4,0-2.4-0.4-3.2-1.3c-0.8-0.9-1.2-2.2-1.2-3.8v-1.4c0-1.7,0.4-3,1.1-4c0.7-1,1.8-1.5,3.1-1.5
				c1.3,0,2.2,0.4,2.9,1.2c0.7,0.8,1,2.1,1,3.8v1.1h-6.9v0.7c0,1.3,0.3,2.4,0.9,3.1c0.6,0.7,1.4,1.1,2.4,1.1c1.1,0,2.1-0.4,2.8-1.3
				l0.6,0.8C171.5,38.7,170.3,39.2,168.8,39.2z M168.6,28.3c-0.9,0-1.7,0.3-2.2,1s-0.8,1.6-0.8,2.9h5.7v-0.3
				C171.2,29.5,170.3,28.3,168.6,28.3z"/>
			<path class="st1" d="M176.1,27.4l0,1.8c0.3-0.6,0.8-1.1,1.3-1.5c0.5-0.4,1.1-0.6,1.8-0.6c2,0,3.1,1.4,3.1,4V39h-1.2v-7.7
				c0-1-0.2-1.8-0.5-2.3c-0.4-0.5-0.9-0.7-1.7-0.7c-0.6,0-1.2,0.2-1.7,0.7c-0.5,0.5-0.9,1.1-1.1,1.9V39H175V27.4H176.1z"/>
			<path class="st1" d="M198,31.7h-6V39h-1.2V23.3h8.1v1.2H192v6h6V31.7z"/>
			<path class="st1" d="M207.1,39c-0.1-0.4-0.2-0.9-0.2-1.6c-0.4,0.6-0.8,1-1.4,1.3c-0.6,0.3-1.2,0.5-1.8,0.5c-1,0-1.8-0.3-2.3-0.8
				c-0.6-0.6-0.8-1.4-0.8-2.4c0-1.1,0.4-2,1.2-2.7c0.8-0.7,1.8-1,3.2-1h2v-1.6c0-0.8-0.2-1.4-0.6-1.8c-0.4-0.4-1-0.5-1.8-0.5
				c-0.7,0-1.3,0.2-1.8,0.6s-0.7,1-0.7,1.7l-1.2,0c0-1,0.4-1.8,1.1-2.4c0.7-0.7,1.6-1,2.7-1c1.2,0,2.1,0.3,2.7,0.9
				c0.6,0.6,0.9,1.4,0.9,2.6v5.7c0,1.1,0.1,2,0.3,2.6V39H207.1z M203.8,38c0.7,0,1.3-0.2,1.9-0.5c0.5-0.4,0.9-0.9,1.2-1.5v-2.8H205
				c-1.1,0-1.9,0.3-2.5,0.7c-0.6,0.5-0.8,1.1-0.8,1.9C201.7,37.3,202.4,38,203.8,38z"/>
			<path class="st1" d="M215,38.1c0.8,0,1.5-0.2,1.9-0.7c0.4-0.5,0.7-1.1,0.7-2h1.1c-0.1,1.2-0.4,2.1-1.1,2.8c-0.7,0.7-1.6,1-2.6,1
				c-1.4,0-2.4-0.4-3.1-1.3c-0.7-0.9-1.1-2.2-1.1-3.9v-1.4c0-1.8,0.4-3.1,1.1-4c0.7-0.9,1.8-1.4,3.1-1.4c1.2,0,2.1,0.4,2.7,1.1
				s1,1.7,1.1,3h-1.1c0-1-0.3-1.7-0.7-2.2s-1.1-0.8-1.9-0.8c-1,0-1.8,0.3-2.3,1c-0.5,0.7-0.7,1.8-0.7,3.2v1.3c0,1.5,0.2,2.6,0.7,3.2
				C213.2,37.7,214,38.1,215,38.1z"/>
			<path class="st1" d="M225.1,39.2c-1.4,0-2.4-0.4-3.2-1.3c-0.8-0.9-1.2-2.2-1.2-3.8v-1.4c0-1.7,0.4-3,1.1-4c0.7-1,1.8-1.5,3.1-1.5
				c1.3,0,2.2,0.4,2.9,1.2c0.7,0.8,1,2.1,1,3.8v1.1h-6.9v0.7c0,1.3,0.3,2.4,0.9,3.1c0.6,0.7,1.4,1.1,2.4,1.1c1.1,0,2.1-0.4,2.8-1.3
				l0.6,0.8C227.8,38.7,226.7,39.2,225.1,39.2z M224.9,28.3c-0.9,0-1.7,0.3-2.2,1s-0.8,1.6-0.8,2.9h5.7v-0.3
				C227.6,29.5,226.7,28.3,224.9,28.3z"/>
			<path class="st1" d="M239.3,33.7c0,1.8-0.3,3.2-0.9,4.1c-0.6,0.9-1.6,1.4-2.8,1.4c-1.4,0-2.4-0.6-3-1.8l-0.1,1.6h-1.1V22.5h1.2
				V29c0.7-1.2,1.7-1.8,3-1.8c1.3,0,2.2,0.4,2.8,1.3c0.6,0.9,0.9,2.2,1,4V33.7z M238.1,32.6c0-1.5-0.2-2.6-0.7-3.3
				c-0.4-0.7-1.2-1.1-2.1-1.1c-1.3,0-2.2,0.7-2.8,2.1v5.8c0.2,0.6,0.6,1.1,1.1,1.4s1,0.5,1.7,0.5c1,0,1.7-0.3,2.1-1
				c0.4-0.7,0.7-1.8,0.7-3.2V32.6z"/>
			<path class="st1" d="M241.6,32.6c0-1.7,0.4-3,1.1-4c0.8-1,1.8-1.5,3.1-1.5c1.3,0,2.4,0.5,3.1,1.4c0.8,1,1.1,2.3,1.1,4v1.2
				c0,1.7-0.4,3-1.1,4c-0.8,1-1.8,1.4-3.1,1.4c-1.3,0-2.3-0.5-3.1-1.4c-0.8-0.9-1.2-2.2-1.2-3.8V32.6z M242.8,33.8
				c0,1.3,0.3,2.4,0.8,3.2c0.5,0.8,1.3,1.1,2.2,1.1c1,0,1.7-0.4,2.3-1.1c0.5-0.7,0.8-1.8,0.8-3.2v-1.2c0-1.3-0.3-2.4-0.8-3.2
				c-0.5-0.8-1.3-1.2-2.2-1.2c-0.9,0-1.7,0.4-2.2,1.1c-0.5,0.8-0.8,1.8-0.8,3.1V33.8z"/>
			<path class="st1" d="M252.4,32.6c0-1.7,0.4-3,1.1-4c0.8-1,1.8-1.5,3.1-1.5c1.3,0,2.4,0.5,3.1,1.4c0.8,1,1.1,2.3,1.1,4v1.2
				c0,1.7-0.4,3-1.1,4c-0.8,1-1.8,1.4-3.1,1.4c-1.3,0-2.3-0.5-3.1-1.4c-0.8-0.9-1.2-2.2-1.2-3.8V32.6z M253.6,33.8
				c0,1.3,0.3,2.4,0.8,3.2c0.5,0.8,1.3,1.1,2.2,1.1c1,0,1.7-0.4,2.3-1.1c0.5-0.7,0.8-1.8,0.8-3.2v-1.2c0-1.3-0.3-2.4-0.8-3.2
				c-0.5-0.8-1.3-1.2-2.2-1.2c-0.9,0-1.7,0.4-2.2,1.1c-0.5,0.8-0.8,1.8-0.8,3.1V33.8z"/>
			<path class="st1" d="M266.1,33.2l-1.2,1.4V39h-1.2V22.5h1.2V33l1-1.3l3.6-4.4h1.5l-4.1,4.9l4.5,6.7h-1.4L266.1,33.2z"/>
		</g>
		<path class="st1" d="M52.1,31h-3.8c0,6.1,0,12.3,0,12.3h-4.9c0,0,0-6.1,0-12.3H41v-3.6h2.4v-3c0-2,0.8-5.1,5-5.1H52v4.5
			c0,0-1.8,0-2.2,0s-1.5-0.1-1.5,0.8v2.8h4.2L52.1,31z"/>
	</g>
</g>
</svg>
