<?xml version="1.0" encoding="utf-8"?>
<!-- Generator: Adobe Illustrator 21.1.0, SVG Export Plug-In . SVG Version: 6.00 Build 0)  -->
<svg version="1.1" id="Layer_1" xmlns="http://www.w3.org/2000/svg" xmlns:xlink="http://www.w3.org/1999/xlink" x="0px" y="0px"
	 viewBox="0 0 307 65" style="enable-background:new 0 0 307 65;" xml:space="preserve">
<style type="text/css">
	.st0{fill:#22B1FF;}
	.st1{fill:#FFFFFF;}
	.st2{font-family:'RobotoCondensed-Light';}
	.st3{font-size:22px;}
</style>
<g>
	<path class="st0" d="M274.9,63.7H32.4C15,63.7,1,49.7,1,32.4v0C1,15,15,1,32.4,1h242.6c17.3,0,31.4,14,31.4,31.4v0
		C306.3,49.7,292.3,63.7,274.9,63.7z"/>
	<text transform="matrix(1 0 0 1 86.9006 38.9775)" class="st1 st2 st3">Compartir en Twitter</text>
	<g>
		<path class="st1" d="M66.9,23.4c-1,0.5-1.9,0.6-3,0.8c1.1-0.6,1.9-1.8,2.4-2.9c-1.1,0.5-2.2,1-3.4,1.1c-1-1-2.4-1.8-3.8-1.8
			c-2.9,0-5.3,2.4-5.3,5.3c0,0.5,0,0.8,0.2,1.3c-4.6-0.2-8.6-2.2-11.2-5.4c-0.5,0.8-0.8,1.8-0.8,2.7c0,1.9,1,3.5,2.4,4.5
			c-0.8,0-1.8-0.3-2.4-0.6l0,0c0,2.6,1.9,4.8,4.3,5.3c-0.5,0.2-1,0.2-1.4,0.2c-0.3,0-0.6,0-1-0.2c0.6,2.1,2.7,3.7,5,3.7
			c-1.8,1.4-4.2,2.2-6.6,2.2c-0.5,0-0.8,0-1.3,0c2.4,1.4,5.1,2.4,8.2,2.4c9.8,0,15.2-8.2,15.2-15.2v-0.6
			C65.3,25.3,66.2,24.3,66.9,23.4L66.9,23.4z"/>
	</g>
</g>
</svg>
