<?xml version="1.0" encoding="utf-8"?>
<!-- Generator: Adobe Illustrator 21.1.0, SVG Export Plug-In . SVG Version: 6.00 Build 0)  -->
<svg version="1.1" id="Layer_1" xmlns="http://www.w3.org/2000/svg" xmlns:xlink="http://www.w3.org/1999/xlink" x="0px" y="0px"
	 viewBox="0 0 486 258" style="enable-background:new 0 0 486 258;" xml:space="preserve">
<style type="text/css">
	.st0{fill:#FFFFFF;}
	.st1{fill:#F9836B;}
	.st2{fill:#FFD6C3;}
	.st3{fill:#FFFFFF;stroke:#F9836B;stroke-width:2;stroke-linecap:round;stroke-linejoin:round;stroke-miterlimit:10;}
</style>
<g>
	<g>
		<path class="st0" d="M270,219.5c0-7.3-6-13.3-13.3-13.3c-6.2,0-11.3,4.2-12.9,9.9c-1.5-5.7-6.7-9.9-12.9-9.9
			c-7.3,0-13.3,6-13.3,13.3c0,16.7,26.1,30.5,26.1,30.5s26.1-13.8,26.1-29.1C270,220.5,270,220,270,219.5z"/>
		<path class="st1" d="M243.9,251.5c-0.2,0-0.5-0.1-0.7-0.2c-1.1-0.6-26.9-14.4-26.9-31.9c0-8.2,6.6-14.8,14.8-14.8
			c5.4,0,10.3,2.9,12.9,7.5c2.6-4.5,7.5-7.5,12.9-7.5c8.2,0,14.8,6.6,14.8,14.8c0,0.5,0,1-0.1,1.5c-0.1,16-25.8,29.7-26.9,30.3
			C244.4,251.5,244.1,251.5,243.9,251.5z M231,207.7c-6.5,0-11.8,5.3-11.8,11.8c0,14.2,20.5,26.5,24.6,28.8
			c4.1-2.3,24.6-14.5,24.6-27.4c0-0.1,0-0.1,0-0.2c0-0.4,0.1-0.8,0.1-1.3c0-6.5-5.3-11.8-11.8-11.8c-5.3,0-10,3.6-11.4,8.8
			c-0.2,0.7-0.8,1.1-1.5,1.1l0,0c-0.7,0-1.3-0.5-1.5-1.1C241,211.3,236.4,207.7,231,207.7z"/>
	</g>
	<g>
		<g>
			<path class="st1" d="M64.7,256.4c-1.2,0-2.4-0.5-3.3-1.4l-21.1-21.1c-12.9-2.6-27.2-16.5-34.1-28.4c-4.6-8-6.2-15.2-4.5-20.3
				c0.2-0.5,0.6-0.9,1.1-1c0.5-0.1,1,0,1.4,0.4L68,248.5c1.8,1.8,1.8,4.7,0,6.6C67.1,255.9,65.9,256.4,64.7,256.4z M4,188.8
				c-0.3,4.1,1.3,9.4,4.7,15.2c6.8,11.6,20.8,24.9,32.5,27c0.3,0.1,0.6,0.2,0.8,0.4l21.4,21.4c0.6,0.6,1.7,0.6,2.3,0
				c0.6-0.6,0.6-1.7,0-2.3L4,188.8z"/>
		</g>
		<g>
			<path class="st1" d="M41,234c-0.4,0-0.8-0.1-1.1-0.4c-0.6-0.6-0.6-1.5,0-2.1l4.4-4.4c0.6-0.6,1.5-0.6,2.1,0
				c0.6,0.6,0.6,1.5,0,2.1l-4.4,4.4C41.8,233.9,41.4,234,41,234z"/>
		</g>
	</g>
	<g>
		<g>
			<path class="st1" d="M455.2,196.3c-0.4,0-0.8-0.1-1.1-0.4c-0.6-0.6-0.6-1.5,0-2.1l13.3-13.3c0.6-0.6,1.5-0.6,2.1,0
				c0.6,0.6,0.6,1.5,0,2.1l-13.3,13.3C455.9,196.2,455.6,196.3,455.2,196.3z"/>
		</g>
		<g>
			<path class="st1" d="M470.3,211.5c-0.4,0-0.8-0.1-1.1-0.4c-0.6-0.6-0.6-1.5,0-2.1l13.3-13.3c0.6-0.6,1.5-0.6,2.1,0
				c0.6,0.6,0.6,1.5,0,2.1l-13.3,13.3C471.1,211.4,470.7,211.5,470.3,211.5z"/>
		</g>
		<g>
			<path class="st1" d="M462.3,199.4c-0.4,0-0.8-0.1-1.1-0.4c-0.6-0.6-0.6-1.5,0-2.1l11.3-11.3c0.6-0.6,1.5-0.6,2.1,0
				c0.6,0.6,0.6,1.5,0,2.1l-11.3,11.3C463,199.2,462.6,199.4,462.3,199.4z"/>
		</g>
		<g>
			<path class="st1" d="M467.3,204.4c-0.4,0-0.8-0.1-1.1-0.4c-0.6-0.6-0.6-1.5,0-2.1l11.3-11.3c0.6-0.6,1.5-0.6,2.1,0s0.6,1.5,0,2.1
				L468.4,204C468.1,204.3,467.7,204.4,467.3,204.4z"/>
		</g>
		<g>
			<path class="st0" d="M472.4,208l-15.2-15.2l-2,2c-3.4,3.4-4,8.6-1.9,12.6c-5.9,5.9-42.3,42.3-42.3,42.3c-1.2,1.2-1.2,3.2,0,4.4
				c1.2,1.2,3.2,1.2,4.4,0l42.3-42.3c4.1,2.2,9.2,1.5,12.6-1.9L472.4,208z"/>
			<path class="st1" d="M413.2,256.6c-1.2,0-2.4-0.5-3.3-1.4c-0.9-0.9-1.4-2-1.4-3.3s0.5-2.4,1.4-3.3l41.6-41.6
				c-1.9-4.6-0.9-9.8,2.6-13.4l2-2c0.6-0.6,1.6-0.6,2.1,0l15.2,15.2c0.6,0.6,0.6,1.5,0,2.1l-2,2c-3.6,3.6-8.8,4.6-13.4,2.6
				l-41.6,41.6C415.6,256.2,414.4,256.6,413.2,256.6z M457.2,194.9l-1,1c-2.9,2.9-3.5,7.3-1.6,10.9c0.3,0.6,0.2,1.3-0.3,1.8
				L412,250.8c-0.3,0.3-0.5,0.7-0.5,1.2s0.2,0.8,0.5,1.2c0.6,0.6,1.7,0.6,2.3,0l42.3-42.3c0.5-0.5,1.2-0.6,1.8-0.3
				c3.6,1.9,8,1.3,10.9-1.6l1-1L457.2,194.9z"/>
		</g>
	</g>
	<g>
		<polygon class="st0" points="132.3,109.5 125.8,112.9 127,105.7 121.8,100.6 129,99.6 132.3,93 135.5,99.6 142.7,100.6 
			137.5,105.7 138.7,112.9 		"/>
		<path class="st1" d="M138.7,113.9c-0.2,0-0.3,0-0.5-0.1l-6-3.2l-6,3.2c-0.3,0.2-0.7,0.1-1.1-0.1c-0.3-0.2-0.5-0.6-0.4-1l1.1-6.7
			l-4.9-4.7c-0.3-0.3-0.4-0.7-0.3-1c0.1-0.4,0.4-0.6,0.8-0.7l6.7-1l3-6.1c0.3-0.7,1.5-0.7,1.8,0l3,6.1l6.7,1
			c0.4,0.1,0.7,0.3,0.8,0.7c0.1,0.4,0,0.8-0.3,1l-4.9,4.7l1.1,6.7c0.1,0.4-0.1,0.8-0.4,1C139.2,113.8,138.9,113.9,138.7,113.9z
			 M132.3,108.5c0.2,0,0.3,0,0.5,0.1l4.7,2.5l-0.9-5.2c-0.1-0.3,0.1-0.7,0.3-0.9l3.8-3.7l-5.2-0.8c-0.3,0-0.6-0.3-0.8-0.5l-2.3-4.7
			l-2.3,4.7c-0.1,0.3-0.4,0.5-0.8,0.5l-5.2,0.8l3.8,3.7c0.2,0.2,0.3,0.6,0.3,0.9l-0.9,5.2l4.7-2.5
			C131.9,108.5,132.1,108.5,132.3,108.5z"/>
	</g>
	<g>
		<polygon class="st0" points="380.6,119.5 374.1,122.9 375.4,115.7 370.1,110.6 377.4,109.5 380.6,103 383.8,109.5 391.1,110.6 
			385.8,115.7 387.1,122.9 		"/>
		<path class="st1" d="M387.1,123.9c-0.2,0-0.3,0-0.5-0.1l-6-3.2l-6,3.2c-0.3,0.2-0.7,0.1-1.1-0.1c-0.3-0.2-0.5-0.6-0.4-1l1.1-6.7
			l-4.9-4.7c-0.3-0.3-0.4-0.7-0.3-1c0.1-0.4,0.4-0.6,0.8-0.7l6.7-1l3-6.1c0.3-0.7,1.5-0.7,1.8,0l3,6.1l6.7,1
			c0.4,0.1,0.7,0.3,0.8,0.7c0.1,0.4,0,0.8-0.3,1l-4.9,4.7l1.1,6.7c0.1,0.4-0.1,0.8-0.4,1C387.5,123.8,387.3,123.9,387.1,123.9z
			 M380.6,118.5c0.2,0,0.3,0,0.5,0.1l4.7,2.5l-0.9-5.2c-0.1-0.3,0.1-0.7,0.3-0.9l3.8-3.7l-5.2-0.8c-0.3,0-0.6-0.3-0.8-0.5l-2.3-4.7
			l-2.3,4.7c-0.1,0.3-0.4,0.5-0.8,0.5l-5.2,0.8l3.8,3.7c0.2,0.2,0.3,0.6,0.3,0.9l-0.9,5.2l4.7-2.5
			C380.3,118.5,380.4,118.5,380.6,118.5z"/>
	</g>
	<g>
		<polygon class="st0" points="110.9,226.9 104.5,230.3 105.7,223.1 100.5,218 107.7,216.9 110.9,210.4 114.2,216.9 121.4,218 
			116.2,223.1 117.4,230.3 		"/>
		<path class="st1" d="M117.4,231.3c-0.2,0-0.3,0-0.5-0.1l-6-3.2l-6,3.2c-0.3,0.2-0.7,0.1-1.1-0.1c-0.3-0.2-0.5-0.6-0.4-1l1.1-6.7
			l-4.9-4.7c-0.3-0.3-0.4-0.7-0.3-1c0.1-0.4,0.4-0.6,0.8-0.7l6.7-1l3-6.1c0.3-0.7,1.5-0.7,1.8,0l3,6.1l6.7,1
			c0.4,0.1,0.7,0.3,0.8,0.7c0.1,0.4,0,0.8-0.3,1l-4.9,4.7l1.1,6.7c0.1,0.4-0.1,0.8-0.4,1C117.8,231.2,117.6,231.3,117.4,231.3z
			 M110.9,225.9c0.2,0,0.3,0,0.5,0.1l4.7,2.5l-0.9-5.2c-0.1-0.3,0.1-0.7,0.3-0.9l3.8-3.7l-5.2-0.8c-0.3,0-0.6-0.3-0.8-0.5l-2.3-4.7
			l-2.3,4.7c-0.1,0.3-0.4,0.5-0.8,0.5l-5.2,0.8l3.8,3.7c0.2,0.2,0.3,0.6,0.3,0.9l-0.9,5.2l4.7-2.5
			C110.6,225.9,110.8,225.9,110.9,225.9z"/>
	</g>
	<g>
		<polygon class="st0" points="364.1,226.9 357.6,230.3 358.8,223.1 353.6,218 360.8,216.9 364.1,210.4 367.3,216.9 374.5,218 
			369.3,223.1 370.5,230.3 		"/>
		<path class="st1" d="M370.5,231.3c-0.2,0-0.3,0-0.5-0.1l-6-3.2l-6,3.2c-0.3,0.2-0.7,0.1-1.1-0.1c-0.3-0.2-0.5-0.6-0.4-1l1.1-6.7
			l-4.9-4.7c-0.3-0.3-0.4-0.7-0.3-1c0.1-0.4,0.4-0.6,0.8-0.7l6.7-1l3-6.1c0.3-0.7,1.5-0.7,1.8,0l3,6.1l6.7,1
			c0.4,0.1,0.7,0.3,0.8,0.7c0.1,0.4,0,0.8-0.3,1l-4.9,4.7l1.1,6.7c0.1,0.4-0.1,0.8-0.4,1C370.9,231.2,370.7,231.3,370.5,231.3z
			 M364.1,225.9c0.2,0,0.3,0,0.5,0.1l4.7,2.5l-0.9-5.2c-0.1-0.3,0.1-0.7,0.3-0.9l3.8-3.7l-5.2-0.8c-0.3,0-0.6-0.3-0.8-0.5l-2.3-4.7
			l-2.3,4.7c-0.1,0.3-0.4,0.5-0.8,0.5l-5.2,0.8l3.8,3.7c0.2,0.2,0.3,0.6,0.3,0.9l-0.9,5.2l4.7-2.5
			C363.7,225.9,363.9,225.9,364.1,225.9z"/>
	</g>
	<g>
		<g>
			<path class="st1" d="M241,141.3c-9.1,0-17.7-1-24.2-2.7c-7.5-2-11.3-4.8-11.3-8.3V88.5c-18.7-1-33.6-16.6-33.6-35.5
				c0-19.6,16-35.6,35.6-35.6c1.1,0,2.3,0.1,3.5,0.2C217.4,7.3,228.8,1,241,1c12.2,0,23.6,6.3,30.1,16.6c1.2-0.1,2.3-0.2,3.5-0.2
				c19.6,0,35.6,16,35.6,35.6c0,18.9-14.9,34.5-33.6,35.5v41.8c0,3.5-3.8,6.3-11.3,8.3C258.7,140.3,250.1,141.3,241,141.3z
				 M207.4,21.4c-17.4,0-31.6,14.2-31.6,31.6s14.2,31.6,31.6,31.6c1.1,0,2,0.9,2,2v43.7c0,2.4,11.1,7,31.6,7s31.6-4.6,31.6-7V86.5
				c0-1.1,0.9-2,2-2c17.4,0,31.6-14.2,31.6-31.6S292,21.4,274.6,21.4c-1.4,0-2.8,0.1-4.3,0.3c-0.8,0.1-1.6-0.3-2-1
				C262.7,11,252.2,5,241,5c-11.2,0-21.7,6-27.3,15.7c-0.4,0.7-1.2,1.1-2,1C210.3,21.5,208.8,21.4,207.4,21.4z"/>
		</g>
		<g>
			<g>
				<path class="st1" d="M241,113c-16.8,0-34.6-3.5-34.6-10c0-0.6,0.4-1,1-1s1,0.4,1,1c0,3.8,13.4,8,32.6,8s32.6-4.2,32.6-8
					c0-0.6,0.4-1,1-1s1,0.4,1,1C275.6,109.5,257.8,113,241,113z"/>
			</g>
			<g>
				<line class="st2" x1="218.6" y1="137" x2="218.6" y2="109.7"/>
				<path class="st1" d="M218.6,138c-0.6,0-1-0.4-1-1v-27.3c0-0.6,0.4-1,1-1s1,0.4,1,1V137C219.6,137.5,219.2,138,218.6,138z"/>
			</g>
			<g>
				<line class="st2" x1="229.8" y1="138.8" x2="229.8" y2="111.5"/>
				<path class="st1" d="M229.8,139.8c-0.6,0-1-0.4-1-1v-27.3c0-0.6,0.4-1,1-1s1,0.4,1,1v27.3C230.8,139.3,230.4,139.8,229.8,139.8z
					"/>
			</g>
			<g>
				<line class="st2" x1="241" y1="139.3" x2="241" y2="112"/>
				<path class="st1" d="M241,140.3c-0.6,0-1-0.4-1-1V112c0-0.6,0.4-1,1-1s1,0.4,1,1v27.3C242,139.8,241.6,140.3,241,140.3z"/>
			</g>
			<g>
				<line class="st2" x1="252.2" y1="138.8" x2="252.2" y2="111.5"/>
				<path class="st1" d="M252.2,139.8c-0.6,0-1-0.4-1-1v-27.3c0-0.6,0.4-1,1-1s1,0.4,1,1v27.3C253.2,139.3,252.7,139.8,252.2,139.8z
					"/>
			</g>
			<g>
				<line class="st2" x1="263.4" y1="137" x2="263.4" y2="109.7"/>
				<path class="st1" d="M263.4,138c-0.6,0-1-0.4-1-1v-27.3c0-0.6,0.4-1,1-1s1,0.4,1,1V137C264.4,137.5,263.9,138,263.4,138z"/>
			</g>
		</g>
		<g>
			<path class="st2" d="M207.4,86.5c4.2,0,8.2-0.8,11.9-2.2"/>
			<path class="st1" d="M207.4,88.5c-1.1,0-2-0.9-2-2s0.9-2,2-2c3.8,0,7.6-0.7,11.2-2c1-0.4,2.2,0.1,2.6,1.2c0.4,1-0.1,2.2-1.2,2.6
				C216,87.8,211.8,88.5,207.4,88.5z"/>
		</g>
		<g>
			<path class="st2" d="M262.7,84.4c3.7,1.4,7.7,2.2,11.9,2.2"/>
			<path class="st1" d="M274.6,88.5c-4.3,0-8.6-0.8-12.6-2.3c-1-0.4-1.6-1.5-1.2-2.6s1.5-1.6,2.6-1.2c3.6,1.3,7.3,2,11.2,2
				c1.1,0,2,0.9,2,2S275.7,88.5,274.6,88.5z"/>
		</g>
	</g>
	<g>
		<g>
			<rect x="302.8" y="202.2" class="st0" width="26.3" height="21.7"/>
			<path class="st1" d="M329.1,224.9h-26.3c-0.6,0-1-0.4-1-1v-21.7c0-0.6,0.4-1,1-1h26.3c0.6,0,1,0.4,1,1v21.7
				C330.1,224.5,329.7,224.9,329.1,224.9z M303.8,222.9h24.3v-19.7h-24.3V222.9z"/>
		</g>
		<g>
			<rect x="302.8" y="198.9" class="st0" width="26.3" height="3.2"/>
			<path class="st1" d="M329.1,203.2h-26.3c-0.6,0-1-0.4-1-1v-3.2c0-0.6,0.4-1,1-1h26.3c0.6,0,1,0.4,1,1v3.2
				C330.1,202.7,329.7,203.2,329.1,203.2z M303.8,201.2h24.3v-1.2h-24.3V201.2z"/>
		</g>
		<g>
			<line class="st0" x1="299.2" y1="202.2" x2="333.2" y2="202.2"/>
			<path class="st1" d="M333.2,203.2h-34c-0.6,0-1-0.4-1-1s0.4-1,1-1h34c0.6,0,1,0.4,1,1S333.8,203.2,333.2,203.2z"/>
		</g>
		<g>
			<path class="st0" d="M314.5,197.8v-1.7c0-0.7,0.5-1.2,1.2-1.2h0.5c0.7,0,1.2,0.5,1.2,1.2v1.7"/>
			<path class="st1" d="M317.4,198.8c-0.6,0-1-0.4-1-1v-1.7c0-0.1-0.1-0.2-0.2-0.2h-0.5c-0.1,0-0.2,0.1-0.2,0.2v1.7c0,0.6-0.4,1-1,1
				s-1-0.4-1-1v-1.7c0-1.2,1-2.2,2.2-2.2h0.5c1.2,0,2.2,1,2.2,2.2v1.7C318.4,198.4,318,198.8,317.4,198.8z"/>
		</g>
		<g>
			<path class="st3" d="M315.9,198.9"/>
		</g>
	</g>
	<g>
		<g>
			<g>
				<path class="st0" d="M185.2,114c0-7-5.5-12.6-12.3-12.6s-12.3,5.6-12.3,12.6"/>
				<path class="st1" d="M185.2,115c-0.6,0-1-0.4-1-1c0-6.4-5.1-11.6-11.3-11.6s-11.3,5.2-11.3,11.6c0,0.6-0.4,1-1,1s-1-0.4-1-1
					c0-7.5,6-13.6,13.3-13.6s13.3,6.1,13.3,13.6C186.2,114.5,185.8,115,185.2,115z"/>
			</g>
			<g>
				<path class="st1" d="M187.5,115h-29.1c-0.6,0-1-0.4-1-1s0.4-1,1-1h29.1c0.6,0,1,0.4,1,1S188,115,187.5,115z"/>
			</g>
			<g>
				<path class="st1" d="M181.9,119.3h-19c-0.6,0-1-0.4-1-1s0.4-1,1-1h19c0.6,0,1,0.4,1,1S182.4,119.3,181.9,119.3z"/>
			</g>
		</g>
		<g>
			<path class="st0" d="M171.4,101v-1.7c0-0.7,0.5-1.2,1.2-1.2h0.5c0.7,0,1.2,0.5,1.2,1.2v1.7"/>
			<path class="st1" d="M174.4,102c-0.6,0-1-0.4-1-1v-1.7c0-0.1-0.1-0.2-0.2-0.2h-0.5c-0.1,0-0.2,0.1-0.2,0.2v1.7c0,0.6-0.4,1-1,1
				s-1-0.4-1-1v-1.7c0-1.2,1-2.2,2.2-2.2h0.5c1.2,0,2.2,1,2.2,2.2v1.7C175.4,101.5,174.9,102,174.4,102z"/>
		</g>
	</g>
	<g>
		<path class="st1" d="M344.7,121h-14.2c-0.5,0-1-0.4-1-1l0-0.2c-5.6-1.1-8.9-3.3-8.9-5.9c0-0.6,0.4-1,1-1h32c0.6,0,1,0.4,1,1
			c0,2.6-3.3,4.8-8.9,5.9l0,0.2C345.7,120.6,345.2,121,344.7,121z M331.5,119h12.2l0-0.1c0-0.5,0.4-0.9,0.8-1c4-0.7,6.6-1.9,7.6-3.1
			H323c1,1.1,3.6,2.4,7.6,3.1C331.1,118.1,331.5,118.5,331.5,119L331.5,119z"/>
	</g>
	<g>
		<g>
			<path class="st1" d="M197,230.9c-0.8,0-1.5-0.3-2.1-0.9l-10.4-10.3c-0.6-0.6-0.9-1.3-0.9-2.1s0.3-1.6,0.9-2.1
				c1.2-1.2,3.1-1.2,4.3,0l10.4,10.3c0.6,0.6,0.9,1.3,0.9,2.1c0,0.8-0.3,1.6-0.9,2.1C198.5,230.6,197.7,230.9,197,230.9z
				 M186.6,216.7c-0.3,0-0.5,0.1-0.7,0.3c-0.2,0.2-0.3,0.4-0.3,0.7s0.1,0.5,0.3,0.7l10.4,10.3c0.4,0.4,1.1,0.4,1.4,0l0,0
				c0.2-0.2,0.3-0.4,0.3-0.7s-0.1-0.5-0.3-0.7L187.3,217C187.2,216.8,186.9,216.7,186.6,216.7z"/>
		</g>
		<g>
			<path class="st1" d="M177.3,218.5c-0.2,0-0.5-0.1-0.7-0.3l-12.3-11c-0.2-0.2-0.3-0.4-0.3-0.7c0-0.3,0.1-0.5,0.3-0.7l10.2-10.1
				c0.2-0.2,0.5-0.3,0.7-0.3c0.3,0,0.5,0.1,0.7,0.3l11.1,12.2c0.4,0.4,0.3,1,0,1.4l-9,8.9C177.8,218.4,177.6,218.5,177.3,218.5z
				 M166.4,206.5l10.8,9.7l7.6-7.6l-9.8-10.7L166.4,206.5z"/>
		</g>
		<g>
			<path class="st1" d="M185.1,217.3c-0.3,0-0.5-0.1-0.7-0.3l-3.3-3.3c-0.4-0.4-0.4-1,0-1.4s1-0.4,1.4,0l3.3,3.3
				c0.4,0.4,0.4,1,0,1.4C185.6,217.2,185.4,217.3,185.1,217.3z"/>
		</g>
		<g>
			<path class="st1" d="M177.4,213c-0.1,0-0.2,0-0.3-0.1l-7.4-6.1c-0.2-0.2-0.2-0.5-0.1-0.7c0.2-0.2,0.5-0.2,0.7-0.1l7.4,6.1
				c0.2,0.2,0.2,0.5,0.1,0.7C177.7,212.9,177.6,213,177.4,213z"/>
		</g>
		<g>
			<path class="st1" d="M179.4,211c-0.1,0-0.3,0-0.4-0.1l-6.8-6.7c-0.2-0.2-0.2-0.5,0-0.7c0.2-0.2,0.5-0.2,0.7,0l6.8,6.7
				c0.2,0.2,0.2,0.5,0,0.7C179.7,211,179.6,211,179.4,211z"/>
		</g>
		<g>
			<path class="st1" d="M181.4,209.1c-0.1,0-0.3-0.1-0.4-0.2l-6.2-7.3c-0.2-0.2-0.2-0.5,0.1-0.7c0.2-0.2,0.5-0.2,0.7,0.1l6.2,7.3
				c0.2,0.2,0.2,0.5-0.1,0.7C181.6,209,181.5,209.1,181.4,209.1z"/>
		</g>
	</g>
	<g>
		<g>
			<path class="st1" d="M296.2,117L296.2,117c-0.8,0-1.5-0.3-2-0.8c-1.1-1.1-1.1-3,0.1-4.1l10.1-10.2c0.6-0.6,1.3-0.9,2.1-0.9l0,0
				c0.8,0,1.5,0.3,2,0.8c1.1,1.1,1.1,3-0.1,4.1l-10.1,10.2C297.8,116.7,297,117,296.2,117z M306.6,103c-0.3,0-0.5,0.1-0.7,0.3
				l-10.1,10.2c-0.4,0.4-0.4,1-0.1,1.3c0.1,0.1,0.3,0.2,0.6,0.2l0,0c0.3,0,0.5-0.1,0.7-0.3l10.1-10.2c0.4-0.4,0.4-1,0.1-1.3
				C307,103,306.8,103,306.6,103L306.6,103z"/>
		</g>
		<g>
			<path class="st1" d="M307.8,102.8c-0.1,0-0.2,0-0.3-0.1c-0.1-0.1-0.1-0.4,0-0.5L322.7,87c0.1-0.1,0.4-0.1,0.5,0
				c0.1,0.1,0.1,0.4,0,0.5L308,102.7C308,102.7,307.9,102.8,307.8,102.8z"/>
		</g>
		<g>
			<path class="st1" d="M307.9,102.9c-0.1,0-0.2,0-0.3-0.1c-0.1-0.1-0.1-0.3-0.1-0.4c0.3-0.5,6.2-12,9.3-15.1
				c1.8-1.8,4.7-1.9,6.4-0.2c0.8,0.8,1.3,1.9,1.2,3.2c0,1.2-0.6,2.4-1.4,3.2c-3.1,3.1-14.4,9.2-14.9,9.4
				C308,102.8,307.9,102.9,307.9,102.9z M320.2,86.5c-1,0-2.1,0.4-2.9,1.2c-2.4,2.4-7,10.8-8.6,13.8c3-1.6,11.2-6.3,13.7-8.7
				c0.8-0.7,1.2-1.7,1.2-2.7c0-1-0.3-1.9-1-2.6C322,86.8,321.1,86.5,320.2,86.5z"/>
		</g>
		<g>
			<path class="st1" d="M307.8,102.8c-0.1,0-0.2,0-0.3-0.1c-0.1-0.1-0.1-0.3,0-0.5c0.4-0.5,9.1-11.8,10.8-13.5c1.9-1.9,4-2.6,5-1.7
				c0.9,0.9,0.2,3.1-1.7,5c-1.7,1.7-13,10.4-13.5,10.8C307.9,102.8,307.9,102.8,307.8,102.8z M322.1,87.3c-0.8,0-2.1,0.6-3.3,1.9
				c-1.2,1.2-6.2,7.6-8.9,11.1c3.5-2.7,9.9-7.7,11.1-8.9c1.6-1.6,2.2-3.4,1.7-3.9C322.6,87.4,322.4,87.3,322.1,87.3z"/>
		</g>
	</g>
	<g>
		<g>
			<path class="st1" d="M83.5,201.2H40.8c-0.7,0-1.3-0.4-1.7-0.9c-0.4-0.6-0.4-1.3-0.1-1.9l10.2-20.4L39,157.4
				c-0.3-0.6-0.3-1.4,0.1-1.9c0.4-0.6,1-0.9,1.7-0.9h42.6c1.1,0,2,0.9,2,2v42.6C85.5,200.3,84.6,201.2,83.5,201.2z M44.1,197.2h37.4
				v-38.6H44.1l9.2,18.4c0.3,0.6,0.3,1.2,0,1.8L44.1,197.2z"/>
		</g>
		<g>
			<path class="st1" d="M441.1,201.2h-42.6c-1.1,0-2-0.9-2-2v-42.6c0-1.1,0.9-2,2-2h42.6c0.7,0,1.3,0.4,1.7,0.9s0.4,1.3,0.1,1.9
				l-10.1,20.4l10.1,20.4c0.3,0.6,0.3,1.4-0.1,1.9S441.8,201.2,441.1,201.2z M400.5,197.2h37.4l-9.1-18.4c-0.3-0.6-0.3-1.2,0-1.8
				l9.1-18.4h-37.4V197.2z"/>
		</g>
		<g>
			<polygon class="st1" points="83.5,199.2 72.8,177.9 83.5,177.9 			"/>
			<path class="st1" d="M83.5,201.2c-0.7,0-1.4-0.4-1.8-1.1L71,178.8c-0.3-0.6-0.3-1.4,0.1-1.9c0.4-0.6,1-0.9,1.7-0.9h10.7
				c1.1,0,2,0.9,2,2v21.3c0,0.9-0.6,1.7-1.5,1.9C83.8,201.2,83.6,201.2,83.5,201.2z M76,179.9l5.4,10.9v-10.9H76z"/>
		</g>
		<g>
			<polygon class="st1" points="398.5,199.2 398.5,177.9 409.1,177.9 			"/>
			<path class="st1" d="M398.5,201.2c-0.2,0-0.3,0-0.5-0.1c-0.9-0.2-1.5-1-1.5-1.9v-21.3c0-1.1,0.9-2,2-2h10.7
				c0.7,0,1.3,0.4,1.7,0.9c0.4,0.6,0.4,1.3,0.1,1.9l-10.7,21.3C399.9,200.8,399.2,201.2,398.5,201.2z M400.5,179.9v10.9l5.4-10.9
				H400.5z"/>
		</g>
		<g>
			<rect x="72.8" y="133.6" class="st0" width="336.3" height="44.3"/>
			<path class="st1" d="M409.2,179.9H72.8c-1.1,0-2-0.9-2-2v-44.3c0-1.1,0.9-2,2-2h336.3c1.1,0,2,0.9,2,2v44.3
				C411.2,179,410.3,179.9,409.2,179.9z M74.8,175.9h332.3v-40.3H74.8V175.9z"/>
		</g>
		<g>
			<g>
				<path class="st1" d="M95.7,153.7h-2.6V151h2.6V153.7z M95.7,170.2h-2.6v-12.9h2.6V170.2z"/>
			</g>
			<g>
				<path class="st1" d="M113.7,163.1c-0.6,0.6-1.4,1.1-2.5,1.7c-1.1,0.5-2.5,0.8-4.3,0.8c-2.6,0-4.7-0.9-6.3-2.7
					c-1.6-1.8-2.4-4.1-2.4-7v-0.3c0-2.9,0.8-5.2,2.4-7c1.6-1.8,3.7-2.7,6.4-2.7c1.4,0,2.7,0.2,3.8,0.7c1.1,0.4,2,1,2.7,1.8v3.5h-1.8
					l-0.6-2.6c-0.4-0.4-1-0.6-1.6-0.9c-0.6-0.2-1.3-0.3-2.2-0.3c-2.1,0-3.7,0.7-4.8,2.1c-1.1,1.4-1.7,3.3-1.7,5.5v0.3
					c0,2.3,0.5,4.1,1.6,5.6c1.1,1.4,2.6,2.1,4.5,2.1c1,0,1.9-0.1,2.6-0.3s1.2-0.5,1.6-0.7v-4.2l-3.2-0.1v-1.9h5.7V163.1z"/>
			</g>
			<g>
				<path class="st1" d="M117,152.7V151h4.5l0.2,2.1c0.4-0.7,0.9-1.3,1.5-1.7c0.6-0.4,1.3-0.6,2-0.6c0.2,0,0.4,0,0.6,0
					c0.2,0,0.4,0.1,0.5,0.1l-0.3,2.4l-1.5-0.1c-0.7,0-1.3,0.2-1.7,0.5s-0.8,0.8-1.1,1.4v8.2l2.1,0.4v1.7H117v-1.7l2.1-0.4V153
					L117,152.7z"/>
			</g>
			<g>
				<path class="st1" d="M137.5,165.2c-0.1-0.4-0.1-0.7-0.2-1c0-0.3-0.1-0.6-0.1-0.9c-0.5,0.6-1.1,1.2-1.9,1.6
					c-0.8,0.4-1.6,0.6-2.4,0.6c-1.5,0-2.6-0.4-3.4-1.1c-0.8-0.7-1.2-1.7-1.2-3.1c0-1.4,0.5-2.4,1.6-3.1c1.1-0.7,2.6-1.1,4.5-1.1h2.7
					v-1.7c0-0.8-0.3-1.5-0.8-2c-0.5-0.5-1.3-0.7-2.2-0.7c-0.7,0-1.2,0.1-1.7,0.3c-0.5,0.2-0.9,0.4-1.2,0.7l-0.3,1.5h-2v-2.8
					c0.7-0.5,1.4-0.9,2.4-1.2c0.9-0.3,1.9-0.5,3-0.5c1.6,0,2.9,0.4,3.9,1.2s1.5,2,1.5,3.5v6.9c0,0.2,0,0.4,0,0.5c0,0.2,0,0.4,0,0.5
					l1.1,0.1v1.7H137.5z M133.3,163.3c0.9,0,1.6-0.2,2.4-0.6c0.7-0.4,1.2-0.9,1.5-1.5v-2.3h-2.8c-1.1,0-1.9,0.2-2.5,0.7
					c-0.6,0.5-0.9,1.1-0.9,1.8c0,0.6,0.2,1.1,0.6,1.4C131.9,163.2,132.5,163.3,133.3,163.3z"/>
			</g>
			<g>
				<path class="st1" d="M149.4,163.5c0.9,0,1.6-0.3,2.3-0.8c0.7-0.5,1-1.2,1-2h2.3l0,0.1c0,1.2-0.5,2.3-1.6,3.3
					c-1.1,1-2.5,1.4-4,1.4c-2.1,0-3.7-0.7-4.8-2c-1.1-1.4-1.6-3.1-1.6-5.1v-0.6c0-2,0.5-3.7,1.6-5.1c1.1-1.4,2.7-2,4.7-2
					c1.1,0,2.2,0.2,3.1,0.6c0.9,0.4,1.7,0.9,2.3,1.6l0.1,3.2h-2.1l-0.6-2.2c-0.3-0.3-0.7-0.5-1.2-0.7s-1-0.3-1.6-0.3
					c-1.4,0-2.3,0.5-2.9,1.5c-0.6,1-0.9,2.2-0.9,3.6v0.6c0,1.5,0.3,2.7,0.9,3.6S148.1,163.5,149.4,163.5z"/>
			</g>
			<g>
				<path class="st1" d="M157.6,163.6l2.1-0.4V153l-2.1-0.4V151h4.7v12.2l2.1,0.4v1.7h-6.9V163.6z M162.3,147.3h-2.6v-2.6h2.6V147.3
					z"/>
			</g>
			<g>
				<path class="st1" d="M175.8,165.2c-0.1-0.4-0.1-0.7-0.2-1c0-0.3-0.1-0.6-0.1-0.9c-0.5,0.6-1.1,1.2-1.9,1.6
					c-0.8,0.4-1.6,0.6-2.4,0.6c-1.5,0-2.6-0.4-3.4-1.1c-0.8-0.7-1.2-1.7-1.2-3.1c0-1.4,0.5-2.4,1.6-3.1c1.1-0.7,2.6-1.1,4.5-1.1h2.7
					v-1.7c0-0.8-0.3-1.5-0.8-2c-0.5-0.5-1.3-0.7-2.2-0.7c-0.7,0-1.2,0.1-1.7,0.3c-0.5,0.2-0.9,0.4-1.2,0.7l-0.3,1.5h-2v-2.8
					c0.7-0.5,1.4-0.9,2.4-1.2c0.9-0.3,1.9-0.5,3-0.5c1.6,0,2.9,0.4,3.9,1.2s1.5,2,1.5,3.5v6.9c0,0.2,0,0.4,0,0.5c0,0.2,0,0.4,0,0.5
					l1.1,0.1v1.7H175.8z M171.6,163.3c0.9,0,1.6-0.2,2.4-0.6c0.7-0.4,1.2-0.9,1.5-1.5v-2.3h-2.8c-1.1,0-1.9,0.2-2.5,0.7
					c-0.6,0.5-0.9,1.1-0.9,1.8c0,0.6,0.2,1.1,0.6,1.4C170.2,163.2,170.8,163.3,171.6,163.3z"/>
			</g>
			<g>
				<path class="st1" d="M192.2,155.5h-2l-0.4-1.7c-0.3-0.3-0.7-0.5-1.2-0.7c-0.5-0.2-1-0.3-1.6-0.3c-0.9,0-1.6,0.2-2.1,0.6
					c-0.4,0.4-0.7,0.9-0.7,1.5c0,0.6,0.2,1,0.6,1.3c0.4,0.3,1.2,0.6,2.4,0.9c1.8,0.4,3.1,0.9,4,1.6c0.9,0.7,1.3,1.6,1.3,2.7
					c0,1.3-0.5,2.3-1.5,3.1c-1,0.8-2.4,1.2-4,1.2c-1.1,0-2.1-0.1-2.9-0.4c-0.9-0.3-1.6-0.6-2.3-1.1l0-3.3h2l0.5,1.9
					c0.3,0.3,0.7,0.5,1.2,0.6c0.5,0.1,1,0.2,1.6,0.2c0.9,0,1.6-0.2,2.2-0.6c0.5-0.4,0.8-0.9,0.8-1.5c0-0.6-0.2-1-0.7-1.4
					c-0.4-0.4-1.3-0.7-2.5-1c-1.7-0.4-3-0.9-3.9-1.5s-1.3-1.5-1.3-2.6c0-1.2,0.5-2.1,1.5-3c1-0.8,2.3-1.2,3.9-1.2
					c1.1,0,2.1,0.1,2.9,0.4s1.6,0.7,2.1,1.2L192.2,155.5z"/>
			</g>
			<g>
				<path class="st1" d="M201.5,169.1l2.1-0.4V153l-2.1-0.4V151h4.4l0.2,1.7c0.5-0.7,1.1-1.1,1.7-1.5c0.7-0.3,1.5-0.5,2.4-0.5
					c1.8,0,3.1,0.7,4.1,2.1c1,1.4,1.5,3.3,1.5,5.6v0.3c0,2.1-0.5,3.7-1.5,5c-1,1.3-2.3,1.9-4.1,1.9c-0.9,0-1.7-0.1-2.3-0.4
					c-0.7-0.3-1.2-0.7-1.7-1.3v4.9l2.1,0.4v1.7h-6.9V169.1z M213.2,158.4c0-1.6-0.3-3-0.9-4s-1.6-1.6-2.8-1.6
					c-0.7,0-1.4,0.2-1.9,0.5s-1,0.8-1.3,1.4v6.9c0.3,0.6,0.7,1,1.3,1.4c0.5,0.3,1.2,0.5,1.9,0.5c1.2,0,2.2-0.4,2.8-1.3
					s0.9-2.1,0.9-3.5V158.4z"/>
			</g>
			<g>
				<path class="st1" d="M218.2,158c0-2.1,0.6-3.8,1.7-5.2c1.1-1.4,2.7-2,4.7-2c2,0,3.5,0.7,4.7,2c1.1,1.4,1.7,3.1,1.7,5.2v0.3
					c0,2.1-0.6,3.9-1.7,5.2s-2.7,2-4.7,2c-2,0-3.5-0.7-4.7-2c-1.1-1.4-1.7-3.1-1.7-5.2V158z M220.8,158.3c0,1.5,0.3,2.8,1,3.7
					c0.6,1,1.6,1.5,2.8,1.5c1.2,0,2.2-0.5,2.8-1.5s1-2.2,1-3.7V158c0-1.5-0.3-2.7-1-3.7s-1.6-1.5-2.8-1.5c-1.2,0-2.2,0.5-2.8,1.5
					s-0.9,2.2-0.9,3.7V158.3z"/>
			</g>
			<g>
				<path class="st1" d="M233.3,152.7V151h4.5l0.2,2.1c0.4-0.7,0.9-1.3,1.5-1.7c0.6-0.4,1.3-0.6,2-0.6c0.2,0,0.4,0,0.6,0
					c0.2,0,0.4,0.1,0.5,0.1l-0.3,2.4l-1.5-0.1c-0.7,0-1.3,0.2-1.7,0.5s-0.8,0.8-1.1,1.4v8.2l2.1,0.4v1.7h-6.9v-1.7l2.1-0.4V153
					L233.3,152.7z"/>
			</g>
			<g>
				<path class="st1" d="M251.2,152.7V151h4.5l0.2,2.1c0.4-0.7,0.9-1.3,1.5-1.7c0.6-0.4,1.3-0.6,2-0.6c0.2,0,0.4,0,0.6,0
					c0.2,0,0.4,0.1,0.5,0.1l-0.3,2.4l-1.5-0.1c-0.7,0-1.3,0.2-1.7,0.5s-0.8,0.8-1.1,1.4v8.2l2.1,0.4v1.7h-6.9v-1.7l2.1-0.4V153
					L251.2,152.7z"/>
			</g>
			<g>
				<path class="st1" d="M268.6,165.5c-2,0-3.6-0.7-4.7-2c-1.2-1.3-1.8-3-1.8-5.1v-0.6c0-2,0.6-3.7,1.8-5.1c1.2-1.3,2.6-2,4.3-2
					c1.9,0,3.4,0.6,4.4,1.7c1,1.2,1.5,2.7,1.5,4.6v1.6h-9.3l0,0.1c0,1.4,0.4,2.5,1,3.4c0.7,0.9,1.6,1.3,2.8,1.3
					c0.9,0,1.7-0.1,2.3-0.4c0.7-0.3,1.2-0.6,1.7-1l1,1.7c-0.5,0.5-1.2,0.9-2,1.2C270.8,165.4,269.8,165.5,268.6,165.5z M268.2,152.8
					c-0.9,0-1.6,0.4-2.2,1.1s-1,1.7-1.1,2.8l0,0.1h6.6v-0.3c0-1-0.3-1.9-0.8-2.6C270.1,153.1,269.3,152.8,268.2,152.8z"/>
			</g>
			<g>
				<path class="st1" d="M276.6,158.4c0-2.3,0.5-4.1,1.5-5.6s2.4-2.1,4.2-2.1c0.9,0,1.7,0.2,2.4,0.5s1.2,0.9,1.7,1.5l0.2-1.8h2.2
					v14.1c0,1.8-0.5,3.3-1.5,4.4c-1,1.1-2.5,1.6-4.4,1.6c-0.7,0-1.4-0.1-2.2-0.3s-1.5-0.4-2.1-0.8l0.7-2c0.5,0.3,1.1,0.5,1.7,0.6
					c0.7,0.2,1.3,0.3,1.9,0.3c1.2,0,2-0.3,2.6-1c0.5-0.7,0.8-1.6,0.8-2.8v-1.4c-0.5,0.6-1,1.1-1.7,1.4s-1.4,0.5-2.2,0.5
					c-1.8,0-3.1-0.6-4.1-1.9s-1.5-2.9-1.5-5V158.4z M279.2,158.7c0,1.4,0.3,2.6,0.9,3.5s1.5,1.3,2.8,1.3c0.8,0,1.4-0.2,2-0.5
					c0.5-0.4,1-0.9,1.3-1.5v-6.6c-0.3-0.6-0.8-1.1-1.3-1.4c-0.5-0.4-1.2-0.5-1.9-0.5c-1.2,0-2.2,0.5-2.8,1.6c-0.6,1-0.9,2.4-0.9,4
					V158.7z"/>
			</g>
			<g>
				<path class="st1" d="M291.9,163.6l2.1-0.4V153l-2.1-0.4V151h4.7v12.2l2.1,0.4v1.7h-6.9V163.6z M296.6,147.3H294v-2.6h2.6V147.3z
					"/>
			</g>
			<g>
				<path class="st1" d="M311.7,155.5h-2l-0.4-1.7c-0.3-0.3-0.7-0.5-1.2-0.7c-0.5-0.2-1-0.3-1.6-0.3c-0.9,0-1.6,0.2-2.1,0.6
					c-0.4,0.4-0.7,0.9-0.7,1.5c0,0.6,0.2,1,0.6,1.3c0.4,0.3,1.2,0.6,2.4,0.9c1.8,0.4,3.1,0.9,4,1.6c0.9,0.7,1.3,1.6,1.3,2.7
					c0,1.3-0.5,2.3-1.5,3.1c-1,0.8-2.4,1.2-4,1.2c-1.1,0-2.1-0.1-2.9-0.4c-0.9-0.3-1.6-0.6-2.3-1.1l0-3.3h2l0.5,1.9
					c0.3,0.3,0.7,0.5,1.2,0.6c0.5,0.1,1,0.2,1.6,0.2c0.9,0,1.6-0.2,2.2-0.6c0.5-0.4,0.8-0.9,0.8-1.5c0-0.6-0.2-1-0.7-1.4
					c-0.4-0.4-1.3-0.7-2.5-1c-1.7-0.4-3-0.9-3.9-1.5s-1.3-1.5-1.3-2.6c0-1.2,0.5-2.1,1.5-3c1-0.8,2.3-1.2,3.9-1.2
					c1.1,0,2.1,0.1,2.9,0.4s1.6,0.7,2.1,1.2L311.7,155.5z"/>
			</g>
			<g>
				<path class="st1" d="M319,147.5v3.4h2.7v1.9H319v8.7c0,0.7,0.1,1.1,0.4,1.4c0.3,0.3,0.6,0.4,1.1,0.4c0.2,0,0.5,0,0.8-0.1
					c0.3,0,0.5-0.1,0.7-0.1l0.4,1.8c-0.2,0.2-0.6,0.3-1.1,0.4s-0.9,0.2-1.4,0.2c-1.1,0-1.9-0.3-2.5-1s-0.9-1.6-0.9-3v-8.7h-2.3V151
					h2.3v-3.4H319z"/>
			</g>
			<g>
				<path class="st1" d="M324.4,152.7V151h4.5l0.2,2.1c0.4-0.7,0.9-1.3,1.5-1.7c0.6-0.4,1.3-0.6,2-0.6c0.2,0,0.4,0,0.6,0
					c0.2,0,0.4,0.1,0.5,0.1l-0.3,2.4l-1.5-0.1c-0.7,0-1.3,0.2-1.7,0.5s-0.8,0.8-1.1,1.4v8.2l2.1,0.4v1.7h-6.9v-1.7l2.1-0.4V153
					L324.4,152.7z"/>
			</g>
			<g>
				<path class="st1" d="M344.9,165.2c-0.1-0.4-0.1-0.7-0.2-1c0-0.3-0.1-0.6-0.1-0.9c-0.5,0.6-1.1,1.2-1.9,1.6
					c-0.8,0.4-1.6,0.6-2.4,0.6c-1.5,0-2.6-0.4-3.4-1.1c-0.8-0.7-1.2-1.7-1.2-3.1c0-1.4,0.5-2.4,1.6-3.1c1.1-0.7,2.6-1.1,4.5-1.1h2.7
					v-1.7c0-0.8-0.3-1.5-0.8-2c-0.5-0.5-1.3-0.7-2.2-0.7c-0.7,0-1.2,0.1-1.7,0.3c-0.5,0.2-0.9,0.4-1.2,0.7l-0.3,1.5h-2v-2.8
					c0.7-0.5,1.4-0.9,2.4-1.2c0.9-0.3,1.9-0.5,3-0.5c1.6,0,2.9,0.4,3.9,1.2s1.5,2,1.5,3.5v6.9c0,0.2,0,0.4,0,0.5c0,0.2,0,0.4,0,0.5
					l1.1,0.1v1.7H344.9z M340.7,163.3c0.9,0,1.6-0.2,2.4-0.6c0.7-0.4,1.2-0.9,1.5-1.5v-2.3h-2.8c-1.1,0-1.9,0.2-2.5,0.7
					c-0.6,0.5-0.9,1.1-0.9,1.8c0,0.6,0.2,1.1,0.6,1.4C339.3,163.2,339.9,163.3,340.7,163.3z"/>
			</g>
			<g>
				<path class="st1" d="M350.4,152.7V151h4.5l0.2,2.1c0.4-0.7,0.9-1.3,1.5-1.7c0.6-0.4,1.3-0.6,2-0.6c0.2,0,0.4,0,0.6,0
					c0.2,0,0.4,0.1,0.5,0.1l-0.3,2.4l-1.5-0.1c-0.7,0-1.3,0.2-1.7,0.5s-0.8,0.8-1.1,1.4v8.2l2.1,0.4v1.7h-6.9v-1.7l2.1-0.4V153
					L350.4,152.7z"/>
			</g>
			<g>
				<path class="st1" d="M366.6,147.5v3.4h2.7v1.9h-2.7v8.7c0,0.7,0.1,1.1,0.4,1.4c0.3,0.3,0.6,0.4,1.1,0.4c0.2,0,0.5,0,0.8-0.1
					c0.3,0,0.5-0.1,0.7-0.1l0.4,1.8c-0.2,0.2-0.6,0.3-1.1,0.4s-0.9,0.2-1.4,0.2c-1.1,0-1.9-0.3-2.5-1s-0.9-1.6-0.9-3v-8.7h-2.3V151
					h2.3v-3.4H366.6z"/>
			</g>
			<g>
				<path class="st1" d="M378.4,165.5c-2,0-3.6-0.7-4.7-2c-1.2-1.3-1.8-3-1.8-5.1v-0.6c0-2,0.6-3.7,1.8-5.1c1.2-1.3,2.6-2,4.3-2
					c1.9,0,3.4,0.6,4.4,1.7c1,1.2,1.5,2.7,1.5,4.6v1.6h-9.3l0,0.1c0,1.4,0.4,2.5,1,3.4c0.7,0.9,1.6,1.3,2.8,1.3
					c0.9,0,1.7-0.1,2.3-0.4c0.7-0.3,1.2-0.6,1.7-1l1,1.7c-0.5,0.5-1.2,0.9-2,1.2C380.6,165.4,379.6,165.5,378.4,165.5z M378,152.8
					c-0.9,0-1.6,0.4-2.2,1.1s-1,1.7-1.1,2.8l0,0.1h6.6v-0.3c0-1-0.3-1.9-0.8-2.6C379.9,153.1,379.1,152.8,378,152.8z"/>
			</g>
			<g>
				<path class="st1" d="M389.7,158.9h-2.6V146h2.6V158.9z M389.7,165.2h-2.6v-2.7h2.6V165.2z"/>
			</g>
		</g>
	</g>
</g>
</svg>
